<?xml version="1.0" encoding="utf-8" standalone="no"?>
<!DOCTYPE svg PUBLIC "-//W3C//DTD SVG 1.1//EN"
  "http://www.w3.org/Graphics/SVG/1.1/DTD/svg11.dtd">
<!-- Created with matplotlib (http://matplotlib.org/) -->
<svg height="329.736531pt" version="1.1" viewBox="0 0 421.915937 329.736531" width="421.915937pt" xmlns="http://www.w3.org/2000/svg" xmlns:xlink="http://www.w3.org/1999/xlink">
 <defs>
  <style type="text/css">
*{stroke-linecap:butt;stroke-linejoin:round;}
  </style>
 </defs>
 <g id="figure_1">
  <g id="patch_1">
   <path d="M 0 329.736531 
L 421.915937 329.736531 
L 421.915937 0 
L 0 0 
z
" style="fill:#ffffff;"/>
  </g>
  <g id="axes_1">
   <g id="patch_2">
    <path d="M 46.46375 278.630906 
L 403.58375 278.630906 
L 403.58375 12.518906 
L 46.46375 12.518906 
z
" style="fill:#ffffff;"/>
   </g>
   <g id="matplotlib.axis_1">
    <g id="xtick_1">
     <g id="line2d_1">
      <defs>
       <path d="M 0 0 
L 0 3.5 
" id="mf583fbb4d5" style="stroke:#000000;stroke-width:0.8;"/>
      </defs>
      <g>
       <use style="stroke:#000000;stroke-width:0.8;" x="73.934519" xlink:href="#mf583fbb4d5" y="278.630906"/>
      </g>
     </g>
     <g id="text_1">
      <!-- 0.5 -->
      <defs>
       <path d="M 31.78125 66.40625 
Q 24.171875 66.40625 20.328125 58.90625 
Q 16.5 51.421875 16.5 36.375 
Q 16.5 21.390625 20.328125 13.890625 
Q 24.171875 6.390625 31.78125 6.390625 
Q 39.453125 6.390625 43.28125 13.890625 
Q 47.125 21.390625 47.125 36.375 
Q 47.125 51.421875 43.28125 58.90625 
Q 39.453125 66.40625 31.78125 66.40625 
z
M 31.78125 74.21875 
Q 44.046875 74.21875 50.515625 64.515625 
Q 56.984375 54.828125 56.984375 36.375 
Q 56.984375 17.96875 50.515625 8.265625 
Q 44.046875 -1.421875 31.78125 -1.421875 
Q 19.53125 -1.421875 13.0625 8.265625 
Q 6.59375 17.96875 6.59375 36.375 
Q 6.59375 54.828125 13.0625 64.515625 
Q 19.53125 74.21875 31.78125 74.21875 
z
" id="DejaVuSans-30"/>
       <path d="M 10.6875 12.40625 
L 21 12.40625 
L 21 0 
L 10.6875 0 
z
" id="DejaVuSans-2e"/>
       <path d="M 10.796875 72.90625 
L 49.515625 72.90625 
L 49.515625 64.59375 
L 19.828125 64.59375 
L 19.828125 46.734375 
Q 21.96875 47.46875 24.109375 47.828125 
Q 26.265625 48.1875 28.421875 48.1875 
Q 40.625 48.1875 47.75 41.5 
Q 54.890625 34.8125 54.890625 23.390625 
Q 54.890625 11.625 47.5625 5.09375 
Q 40.234375 -1.421875 26.90625 -1.421875 
Q 22.3125 -1.421875 17.546875 -0.640625 
Q 12.796875 0.140625 7.71875 1.703125 
L 7.71875 11.625 
Q 12.109375 9.234375 16.796875 8.0625 
Q 21.484375 6.890625 26.703125 6.890625 
Q 35.15625 6.890625 40.078125 11.328125 
Q 45.015625 15.765625 45.015625 23.390625 
Q 45.015625 31 40.078125 35.4375 
Q 35.15625 39.890625 26.703125 39.890625 
Q 22.75 39.890625 18.8125 39.015625 
Q 14.890625 38.140625 10.796875 36.28125 
z
" id="DejaVuSans-35"/>
      </defs>
      <g transform="translate(62.802332 296.268719)scale(0.14 -0.14)">
       <use xlink:href="#DejaVuSans-30"/>
       <use x="63.623047" xlink:href="#DejaVuSans-2e"/>
       <use x="95.410156" xlink:href="#DejaVuSans-35"/>
      </g>
     </g>
    </g>
    <g id="xtick_2">
     <g id="line2d_2">
      <g>
       <use style="stroke:#000000;stroke-width:0.8;" x="128.876058" xlink:href="#mf583fbb4d5" y="278.630906"/>
      </g>
     </g>
     <g id="text_2">
      <!-- 1.0 -->
      <defs>
       <path d="M 12.40625 8.296875 
L 28.515625 8.296875 
L 28.515625 63.921875 
L 10.984375 60.40625 
L 10.984375 69.390625 
L 28.421875 72.90625 
L 38.28125 72.90625 
L 38.28125 8.296875 
L 54.390625 8.296875 
L 54.390625 0 
L 12.40625 0 
z
" id="DejaVuSans-31"/>
      </defs>
      <g transform="translate(117.74387 296.268719)scale(0.14 -0.14)">
       <use xlink:href="#DejaVuSans-31"/>
       <use x="63.623047" xlink:href="#DejaVuSans-2e"/>
       <use x="95.410156" xlink:href="#DejaVuSans-30"/>
      </g>
     </g>
    </g>
    <g id="xtick_3">
     <g id="line2d_3">
      <g>
       <use style="stroke:#000000;stroke-width:0.8;" x="183.817596" xlink:href="#mf583fbb4d5" y="278.630906"/>
      </g>
     </g>
     <g id="text_3">
      <!-- 1.5 -->
      <g transform="translate(172.685409 296.268719)scale(0.14 -0.14)">
       <use xlink:href="#DejaVuSans-31"/>
       <use x="63.623047" xlink:href="#DejaVuSans-2e"/>
       <use x="95.410156" xlink:href="#DejaVuSans-35"/>
      </g>
     </g>
    </g>
    <g id="xtick_4">
     <g id="line2d_4">
      <g>
       <use style="stroke:#000000;stroke-width:0.8;" x="238.759135" xlink:href="#mf583fbb4d5" y="278.630906"/>
      </g>
     </g>
     <g id="text_4">
      <!-- 2.0 -->
      <defs>
       <path d="M 19.1875 8.296875 
L 53.609375 8.296875 
L 53.609375 0 
L 7.328125 0 
L 7.328125 8.296875 
Q 12.9375 14.109375 22.625 23.890625 
Q 32.328125 33.6875 34.8125 36.53125 
Q 39.546875 41.84375 41.421875 45.53125 
Q 43.3125 49.21875 43.3125 52.78125 
Q 43.3125 58.59375 39.234375 62.25 
Q 35.15625 65.921875 28.609375 65.921875 
Q 23.96875 65.921875 18.8125 64.3125 
Q 13.671875 62.703125 7.8125 59.421875 
L 7.8125 69.390625 
Q 13.765625 71.78125 18.9375 73 
Q 24.125 74.21875 28.421875 74.21875 
Q 39.75 74.21875 46.484375 68.546875 
Q 53.21875 62.890625 53.21875 53.421875 
Q 53.21875 48.921875 51.53125 44.890625 
Q 49.859375 40.875 45.40625 35.40625 
Q 44.1875 33.984375 37.640625 27.21875 
Q 31.109375 20.453125 19.1875 8.296875 
z
" id="DejaVuSans-32"/>
      </defs>
      <g transform="translate(227.626947 296.268719)scale(0.14 -0.14)">
       <use xlink:href="#DejaVuSans-32"/>
       <use x="63.623047" xlink:href="#DejaVuSans-2e"/>
       <use x="95.410156" xlink:href="#DejaVuSans-30"/>
      </g>
     </g>
    </g>
    <g id="xtick_5">
     <g id="line2d_5">
      <g>
       <use style="stroke:#000000;stroke-width:0.8;" x="293.700673" xlink:href="#mf583fbb4d5" y="278.630906"/>
      </g>
     </g>
     <g id="text_5">
      <!-- 2.5 -->
      <g transform="translate(282.568486 296.268719)scale(0.14 -0.14)">
       <use xlink:href="#DejaVuSans-32"/>
       <use x="63.623047" xlink:href="#DejaVuSans-2e"/>
       <use x="95.410156" xlink:href="#DejaVuSans-35"/>
      </g>
     </g>
    </g>
    <g id="xtick_6">
     <g id="line2d_6">
      <g>
       <use style="stroke:#000000;stroke-width:0.8;" x="348.642212" xlink:href="#mf583fbb4d5" y="278.630906"/>
      </g>
     </g>
     <g id="text_6">
      <!-- 3.0 -->
      <defs>
       <path d="M 40.578125 39.3125 
Q 47.65625 37.796875 51.625 33 
Q 55.609375 28.21875 55.609375 21.1875 
Q 55.609375 10.40625 48.1875 4.484375 
Q 40.765625 -1.421875 27.09375 -1.421875 
Q 22.515625 -1.421875 17.65625 -0.515625 
Q 12.796875 0.390625 7.625 2.203125 
L 7.625 11.71875 
Q 11.71875 9.328125 16.59375 8.109375 
Q 21.484375 6.890625 26.8125 6.890625 
Q 36.078125 6.890625 40.9375 10.546875 
Q 45.796875 14.203125 45.796875 21.1875 
Q 45.796875 27.640625 41.28125 31.265625 
Q 36.765625 34.90625 28.71875 34.90625 
L 20.21875 34.90625 
L 20.21875 43.015625 
L 29.109375 43.015625 
Q 36.375 43.015625 40.234375 45.921875 
Q 44.09375 48.828125 44.09375 54.296875 
Q 44.09375 59.90625 40.109375 62.90625 
Q 36.140625 65.921875 28.71875 65.921875 
Q 24.65625 65.921875 20.015625 65.03125 
Q 15.375 64.15625 9.8125 62.3125 
L 9.8125 71.09375 
Q 15.4375 72.65625 20.34375 73.4375 
Q 25.25 74.21875 29.59375 74.21875 
Q 40.828125 74.21875 47.359375 69.109375 
Q 53.90625 64.015625 53.90625 55.328125 
Q 53.90625 49.265625 50.4375 45.09375 
Q 46.96875 40.921875 40.578125 39.3125 
z
" id="DejaVuSans-33"/>
      </defs>
      <g transform="translate(337.510024 296.268719)scale(0.14 -0.14)">
       <use xlink:href="#DejaVuSans-33"/>
       <use x="63.623047" xlink:href="#DejaVuSans-2e"/>
       <use x="95.410156" xlink:href="#DejaVuSans-30"/>
      </g>
     </g>
    </g>
    <g id="xtick_7">
     <g id="line2d_7">
      <g>
       <use style="stroke:#000000;stroke-width:0.8;" x="403.58375" xlink:href="#mf583fbb4d5" y="278.630906"/>
      </g>
     </g>
     <g id="text_7">
      <!-- 3.5 -->
      <g transform="translate(392.451563 296.268719)scale(0.14 -0.14)">
       <use xlink:href="#DejaVuSans-33"/>
       <use x="63.623047" xlink:href="#DejaVuSans-2e"/>
       <use x="95.410156" xlink:href="#DejaVuSans-35"/>
      </g>
     </g>
    </g>
    <g id="text_8">
     <!-- r -->
     <defs>
      <path d="M 41.109375 46.296875 
Q 39.59375 47.171875 37.8125 47.578125 
Q 36.03125 48 33.890625 48 
Q 26.265625 48 22.1875 43.046875 
Q 18.109375 38.09375 18.109375 28.8125 
L 18.109375 0 
L 9.078125 0 
L 9.078125 54.6875 
L 18.109375 54.6875 
L 18.109375 46.1875 
Q 20.953125 51.171875 25.484375 53.578125 
Q 30.03125 56 36.53125 56 
Q 37.453125 56 38.578125 55.875 
Q 39.703125 55.765625 41.0625 55.515625 
z
" id="DejaVuSans-72"/>
     </defs>
     <g transform="translate(220.912813 318.377156)scale(0.2 -0.2)">
      <use xlink:href="#DejaVuSans-72"/>
     </g>
    </g>
   </g>
   <g id="matplotlib.axis_2">
    <g id="ytick_1">
     <g id="line2d_8">
      <defs>
       <path d="M 0 0 
L -3.5 0 
" id="m0af632e56b" style="stroke:#000000;stroke-width:0.8;"/>
      </defs>
      <g>
       <use style="stroke:#000000;stroke-width:0.8;" x="46.46375" xlink:href="#m0af632e56b" y="273.413024"/>
      </g>
     </g>
     <g id="text_9">
      <!-- 0 -->
      <g transform="translate(30.55625 278.73193)scale(0.14 -0.14)">
       <use xlink:href="#DejaVuSans-30"/>
      </g>
     </g>
    </g>
    <g id="ytick_2">
     <g id="line2d_9">
      <g>
       <use style="stroke:#000000;stroke-width:0.8;" x="46.46375" xlink:href="#m0af632e56b" y="221.2342"/>
      </g>
     </g>
     <g id="text_10">
      <!-- 1 -->
      <g transform="translate(30.55625 226.553107)scale(0.14 -0.14)">
       <use xlink:href="#DejaVuSans-31"/>
      </g>
     </g>
    </g>
    <g id="ytick_3">
     <g id="line2d_10">
      <g>
       <use style="stroke:#000000;stroke-width:0.8;" x="46.46375" xlink:href="#m0af632e56b" y="169.055377"/>
      </g>
     </g>
     <g id="text_11">
      <!-- 2 -->
      <g transform="translate(30.55625 174.374283)scale(0.14 -0.14)">
       <use xlink:href="#DejaVuSans-32"/>
      </g>
     </g>
    </g>
    <g id="ytick_4">
     <g id="line2d_11">
      <g>
       <use style="stroke:#000000;stroke-width:0.8;" x="46.46375" xlink:href="#m0af632e56b" y="116.876553"/>
      </g>
     </g>
     <g id="text_12">
      <!-- 3 -->
      <g transform="translate(30.55625 122.19546)scale(0.14 -0.14)">
       <use xlink:href="#DejaVuSans-33"/>
      </g>
     </g>
    </g>
    <g id="ytick_5">
     <g id="line2d_12">
      <g>
       <use style="stroke:#000000;stroke-width:0.8;" x="46.46375" xlink:href="#m0af632e56b" y="64.69773"/>
      </g>
     </g>
     <g id="text_13">
      <!-- 4 -->
      <defs>
       <path d="M 37.796875 64.3125 
L 12.890625 25.390625 
L 37.796875 25.390625 
z
M 35.203125 72.90625 
L 47.609375 72.90625 
L 47.609375 25.390625 
L 58.015625 25.390625 
L 58.015625 17.1875 
L 47.609375 17.1875 
L 47.609375 0 
L 37.796875 0 
L 37.796875 17.1875 
L 4.890625 17.1875 
L 4.890625 26.703125 
z
" id="DejaVuSans-34"/>
      </defs>
      <g transform="translate(30.55625 70.016636)scale(0.14 -0.14)">
       <use xlink:href="#DejaVuSans-34"/>
      </g>
     </g>
    </g>
    <g id="ytick_6">
     <g id="line2d_13">
      <g>
       <use style="stroke:#000000;stroke-width:0.8;" x="46.46375" xlink:href="#m0af632e56b" y="12.518906"/>
      </g>
     </g>
     <g id="text_14">
      <!-- 5 -->
      <g transform="translate(30.55625 17.837812)scale(0.14 -0.14)">
       <use xlink:href="#DejaVuSans-35"/>
      </g>
     </g>
    </g>
    <g id="text_15">
     <!-- g(r) -->
     <defs>
      <path d="M 45.40625 27.984375 
Q 45.40625 37.75 41.375 43.109375 
Q 37.359375 48.484375 30.078125 48.484375 
Q 22.859375 48.484375 18.828125 43.109375 
Q 14.796875 37.75 14.796875 27.984375 
Q 14.796875 18.265625 18.828125 12.890625 
Q 22.859375 7.515625 30.078125 7.515625 
Q 37.359375 7.515625 41.375 12.890625 
Q 45.40625 18.265625 45.40625 27.984375 
z
M 54.390625 6.78125 
Q 54.390625 -7.171875 48.1875 -13.984375 
Q 42 -20.796875 29.203125 -20.796875 
Q 24.46875 -20.796875 20.265625 -20.09375 
Q 16.0625 -19.390625 12.109375 -17.921875 
L 12.109375 -9.1875 
Q 16.0625 -11.328125 19.921875 -12.34375 
Q 23.78125 -13.375 27.78125 -13.375 
Q 36.625 -13.375 41.015625 -8.765625 
Q 45.40625 -4.15625 45.40625 5.171875 
L 45.40625 9.625 
Q 42.625 4.78125 38.28125 2.390625 
Q 33.9375 0 27.875 0 
Q 17.828125 0 11.671875 7.65625 
Q 5.515625 15.328125 5.515625 27.984375 
Q 5.515625 40.671875 11.671875 48.328125 
Q 17.828125 56 27.875 56 
Q 33.9375 56 38.28125 53.609375 
Q 42.625 51.21875 45.40625 46.390625 
L 45.40625 54.6875 
L 54.390625 54.6875 
z
" id="DejaVuSans-67"/>
      <path d="M 31 75.875 
Q 24.46875 64.65625 21.28125 53.65625 
Q 18.109375 42.671875 18.109375 31.390625 
Q 18.109375 20.125 21.3125 9.0625 
Q 24.515625 -2 31 -13.1875 
L 23.1875 -13.1875 
Q 15.875 -1.703125 12.234375 9.375 
Q 8.59375 20.453125 8.59375 31.390625 
Q 8.59375 42.28125 12.203125 53.3125 
Q 15.828125 64.359375 23.1875 75.875 
z
" id="DejaVuSans-28"/>
      <path d="M 8.015625 75.875 
L 15.828125 75.875 
Q 23.140625 64.359375 26.78125 53.3125 
Q 30.421875 42.28125 30.421875 31.390625 
Q 30.421875 20.453125 26.78125 9.375 
Q 23.140625 -1.703125 15.828125 -13.1875 
L 8.015625 -13.1875 
Q 14.5 -2 17.703125 9.0625 
Q 20.90625 20.125 20.90625 31.390625 
Q 20.90625 42.671875 17.703125 53.65625 
Q 14.5 64.65625 8.015625 75.875 
z
" id="DejaVuSans-29"/>
     </defs>
     <g transform="translate(22.396875 163.837406)rotate(-90)scale(0.2 -0.2)">
      <use xlink:href="#DejaVuSans-67"/>
      <use x="63.476562" xlink:href="#DejaVuSans-28"/>
      <use x="102.490234" xlink:href="#DejaVuSans-72"/>
      <use x="143.603516" xlink:href="#DejaVuSans-29"/>
     </g>
    </g>
   </g>
   <g id="line2d_14">
    <path clip-path="url(#p2d76152806)" d="M 46.353867 273.413024 
L 73.934519 273.413024 
L 73.953362 -1 
M 76.918232 -1 
L 77.670544 31.928372 
L 78.439725 56.592775 
L 79.31879 78.002115 
L 80.307738 96.572188 
L 81.406568 112.733829 
L 82.505399 125.716369 
L 83.714113 137.441729 
L 85.03271 148.051195 
L 86.46119 157.685331 
L 87.999553 166.475328 
L 89.647799 174.539441 
L 91.405928 181.982168 
L 93.273941 188.894794 
L 95.251836 195.356559 
L 97.339615 201.436028 
L 99.647159 207.465604 
L 102.064587 213.174046 
L 104.701781 218.844561 
L 107.558741 224.471568 
L 110.74535 230.250669 
L 114.261608 236.151347 
L 118.107516 242.159142 
L 122.392956 248.427211 
L 127.117928 254.935235 
L 132.392316 261.816067 
L 138.326002 269.187018 
L 141.842261 273.40859 
L 144.699221 273.413024 
L 348.642212 273.413024 
L 348.642212 273.413024 
" style="fill:none;stroke:#0000ff;stroke-linecap:square;stroke-width:1.5;"/>
   </g>
   <g id="line2d_15">
    <path clip-path="url(#p2d76152806)" d="M 46.353867 273.413024 
L 73.934519 273.413024 
L 73.960586 -1 
M 75.992144 -1 
L 76.571713 29.239817 
L 77.231012 53.161487 
L 78.000193 73.14742 
L 78.879258 89.820742 
L 79.758322 102.413331 
L 80.74727 113.42019 
L 81.846101 123.010645 
L 82.944932 130.679908 
L 83.164698 132.389761 
L 84.373412 142.987363 
L 85.692008 152.703264 
L 87.120488 161.626297 
L 88.658852 169.847336 
L 90.307098 177.45352 
L 92.065227 184.525411 
L 93.933239 191.135883 
L 95.911135 197.349968 
L 98.108796 203.517968 
L 100.416341 209.342475 
L 102.943652 215.12223 
L 105.690728 220.846874 
L 108.657572 226.517482 
L 111.954064 232.329449 
L 113.712193 235.118582 
L 117.667984 238.607826 
L 122.063307 242.184528 
L 127.008045 245.919177 
L 132.612082 249.870716 
L 139.095184 254.162392 
L 146.567233 258.833064 
L 155.247996 263.98906 
L 165.467122 269.792173 
L 172.16999 273.413024 
L 348.642212 273.413024 
L 348.642212 273.413024 
" style="fill:none;stroke:#660099;stroke-dasharray:5.55,2.4;stroke-dashoffset:0;stroke-width:1.5;"/>
   </g>
   <g id="line2d_16">
    <path clip-path="url(#p2d76152806)" d="M 46.353867 273.413024 
L 73.934519 273.413024 
L 73.980137 -1 
M 74.58286 -1 
L 74.813584 37.271304 
L 75.253116 79.470362 
L 75.802532 109.282303 
L 76.351947 128.095502 
L 77.011245 143.503013 
L 77.780427 156.076328 
L 78.549608 165.26339 
L 79.428673 173.213119 
L 80.417621 180.061354 
L 81.406568 185.431289 
L 82.505399 190.206874 
L 83.714113 194.437844 
L 84.922827 197.896989 
L 86.241424 201.023739 
L 87.669904 203.841259 
L 89.208267 206.375824 
L 89.428033 206.611476 
L 91.186162 206.957679 
L 93.164058 207.123832 
L 95.471602 207.093203 
L 98.218679 206.822954 
L 101.405288 206.276811 
L 104.921547 205.63621 
L 107.668624 209.160725 
L 110.74535 212.741549 
L 114.041842 216.237817 
L 117.667984 219.762799 
L 121.733658 223.400599 
L 126.238864 227.128104 
L 131.293485 231.015397 
L 137.007405 235.120821 
L 143.490507 239.496017 
L 150.852673 244.189694 
L 159.31367 249.315376 
L 169.203147 255.039693 
L 180.850753 261.516568 
L 194.696021 268.95328 
L 203.266901 273.413024 
L 348.642212 273.413024 
L 348.642212 273.413024 
" style="fill:none;stroke:#cc0033;stroke-dasharray:9.6,2.4,1.5,2.4;stroke-dashoffset:0;stroke-width:1.5;"/>
   </g>
   <g id="line2d_17">
    <path clip-path="url(#p2d76152806)" d="M 46.353867 273.413024 
L 73.934519 273.413024 
L 74.044402 108.161693 
L 74.264168 177.719804 
L 74.593818 205.445699 
L 75.03335 220.32269 
L 75.472882 224.083165 
L 76.022298 226.869754 
L 76.571713 228.630377 
L 77.231012 230.025995 
L 78.000193 231.08831 
L 78.769375 231.783822 
L 79.648439 232.295614 
L 80.74727 232.660466 
L 82.065867 232.838376 
L 83.60423 232.816348 
L 85.582125 232.557667 
L 88.109436 231.992452 
L 91.405928 231.017052 
L 95.801252 229.473212 
L 101.844821 227.099112 
L 110.305818 223.519728 
L 122.612722 218.054203 
L 132.17255 213.76024 
L 137.556821 217.837446 
L 143.60039 222.127563 
L 150.413141 226.684533 
L 158.214839 231.626799 
L 167.115368 236.99492 
L 177.444378 242.957785 
L 189.531516 249.671322 
L 203.816316 257.34424 
L 221.067959 266.349247 
L 234.913227 273.413024 
L 348.642212 273.413024 
L 348.642212 273.413024 
" style="fill:none;stroke:#cc3300;stroke-dasharray:1.5,2.475;stroke-dashoffset:0;stroke-width:1.5;"/>
   </g>
   <g id="line2d_18">
    <path clip-path="url(#p2d76152806)" d="M 46.353867 273.413024 
L 78.110076 273.413024 
L 78.329842 272.865854 
L 79.31879 270.037175 
L 80.417621 267.582979 
L 81.626335 265.406023 
L 83.054815 263.285457 
L 84.703061 261.2345 
L 86.680956 259.13755 
L 88.988501 257.018259 
L 91.845461 254.709571 
L 95.251836 252.248988 
L 99.537276 249.437418 
L 104.921547 246.181766 
L 111.844181 242.267164 
L 120.964476 237.37865 
L 133.271381 231.048511 
L 150.523024 222.440769 
L 161.840981 216.885965 
L 170.631627 222.258068 
L 180.74087 228.170139 
L 192.498359 234.782278 
L 206.343627 242.305425 
L 222.826088 250.999384 
L 242.714925 261.229259 
L 266.889202 273.407381 
L 269.086864 273.413024 
L 348.642212 273.413024 
L 348.642212 273.413024 
" style="fill:none;stroke:#669900;stroke-linecap:square;stroke-width:1.5;"/>
   </g>
   <g id="line2d_19">
    <path clip-path="url(#p2d76152806)" d="M 46.353867 273.413024 
L 96.790199 273.319986 
L 99.866925 270.56246 
L 103.383184 267.711187 
L 107.558741 264.620322 
L 112.503479 261.25015 
L 118.327282 257.558805 
L 125.359799 253.372606 
L 133.930679 248.536605 
L 144.699221 242.727026 
L 158.324722 235.640041 
L 176.125781 226.64442 
L 192.718125 218.419227 
L 193.59719 218.897237 
L 206.783159 226.170622 
L 222.276673 234.454483 
L 240.73703 244.064433 
L 263.153178 255.473751 
L 290.843713 269.307817 
L 299.30471 273.413024 
L 348.642212 273.413024 
L 348.642212 273.413024 
" style="fill:none;stroke:#00ff00;stroke-dasharray:5.55,2.4;stroke-dashoffset:0;stroke-width:1.5;"/>
   </g>
   <g id="patch_3">
    <path d="M 46.46375 278.630906 
L 46.46375 12.518906 
" style="fill:none;stroke:#000000;stroke-linecap:square;stroke-linejoin:miter;stroke-width:0.8;"/>
   </g>
   <g id="patch_4">
    <path d="M 403.58375 278.630906 
L 403.58375 12.518906 
" style="fill:none;stroke:#000000;stroke-linecap:square;stroke-linejoin:miter;stroke-width:0.8;"/>
   </g>
   <g id="patch_5">
    <path d="M 46.46375 278.630906 
L 403.58375 278.630906 
" style="fill:none;stroke:#000000;stroke-linecap:square;stroke-linejoin:miter;stroke-width:0.8;"/>
   </g>
   <g id="patch_6">
    <path d="M 46.46375 12.518906 
L 403.58375 12.518906 
" style="fill:none;stroke:#000000;stroke-linecap:square;stroke-linejoin:miter;stroke-width:0.8;"/>
   </g>
   <g id="legend_1">
    <g id="patch_7">
     <path d="M 93.20375 147.015156 
L 393.78375 147.015156 
Q 396.58375 147.015156 396.58375 144.215156 
L 396.58375 22.318906 
Q 396.58375 19.518906 393.78375 19.518906 
L 93.20375 19.518906 
Q 90.40375 19.518906 90.40375 22.318906 
L 90.40375 144.215156 
Q 90.40375 147.015156 93.20375 147.015156 
z
" style="fill:#ffffff;opacity:0.8;stroke:#cccccc;stroke-linejoin:miter;"/>
    </g>
    <g id="line2d_20">
     <path d="M 96.00375 30.856719 
L 124.00375 30.856719 
" style="fill:none;stroke:#0000ff;stroke-linecap:square;stroke-width:1.5;"/>
    </g>
    <g id="line2d_21"/>
    <g id="text_16">
     <!-- $\Delta x$ = 0.0, $\varepsilon_1$ = 2.8e-06, $\varepsilon_2$ = 6.4e-16 -->
     <defs>
      <path d="M 34.1875 63.1875 
L 14.15625 8.203125 
L 54.25 8.203125 
z
M 0.78125 0 
L 28.609375 72.90625 
L 39.796875 72.90625 
L 67.578125 0 
z
" id="DejaVuSans-394"/>
      <path d="M 60.015625 54.6875 
L 34.90625 27.875 
L 50.296875 0 
L 39.984375 0 
L 28.421875 21.6875 
L 8.296875 0 
L -2.59375 0 
L 24.3125 28.8125 
L 10.015625 54.6875 
L 20.3125 54.6875 
L 30.8125 34.90625 
L 49.125 54.6875 
z
" id="DejaVuSans-Oblique-78"/>
      <path id="DejaVuSans-20"/>
      <path d="M 10.59375 45.40625 
L 73.1875 45.40625 
L 73.1875 37.203125 
L 10.59375 37.203125 
z
M 10.59375 25.484375 
L 73.1875 25.484375 
L 73.1875 17.1875 
L 10.59375 17.1875 
z
" id="DejaVuSans-3d"/>
      <path d="M 11.71875 12.40625 
L 22.015625 12.40625 
L 22.015625 4 
L 14.015625 -11.625 
L 7.71875 -11.625 
L 11.71875 4 
z
" id="DejaVuSans-2c"/>
      <path d="M 19.734375 29.5 
Q 14.453125 30.671875 12.15625 33.84375 
Q 10.453125 36.078125 10.453125 39.109375 
Q 10.453125 47.40625 18.359375 52.25 
Q 24.609375 56.0625 34.1875 56.0625 
Q 37.890625 56.0625 41.9375 55.46875 
Q 46 54.890625 50.53125 53.71875 
L 48.96875 45.5625 
Q 44.484375 46.96875 40.71875 47.609375 
Q 36.859375 48.25 33.40625 48.25 
Q 27.59375 48.25 23.78125 46 
Q 19.1875 43.3125 19.1875 39.40625 
Q 19.1875 36.8125 21.578125 35.015625 
Q 24.421875 32.859375 30.078125 32.859375 
L 37.640625 32.859375 
L 36.234375 25.4375 
L 29 25.4375 
Q 22.265625 25.4375 18.3125 22.953125 
Q 12.9375 19.578125 12.9375 14.3125 
Q 12.9375 10.984375 15.828125 8.796875 
Q 19.4375 6.0625 26.8125 6.0625 
Q 31.34375 6.0625 35.6875 6.9375 
Q 40.046875 7.859375 43.84375 9.671875 
L 42.1875 1.3125 
Q 37.546875 -0.046875 33.296875 -0.734375 
Q 29.046875 -1.421875 25.140625 -1.421875 
Q 13.53125 -1.421875 8.0625 3.03125 
Q 3.90625 6.453125 3.90625 12.203125 
Q 3.90625 19.96875 9.375 24.75 
Q 13.421875 28.328125 19.734375 29.5 
z
" id="DejaVuSans-Oblique-3b5"/>
      <path d="M 31.78125 34.625 
Q 24.75 34.625 20.71875 30.859375 
Q 16.703125 27.09375 16.703125 20.515625 
Q 16.703125 13.921875 20.71875 10.15625 
Q 24.75 6.390625 31.78125 6.390625 
Q 38.8125 6.390625 42.859375 10.171875 
Q 46.921875 13.96875 46.921875 20.515625 
Q 46.921875 27.09375 42.890625 30.859375 
Q 38.875 34.625 31.78125 34.625 
z
M 21.921875 38.8125 
Q 15.578125 40.375 12.03125 44.71875 
Q 8.5 49.078125 8.5 55.328125 
Q 8.5 64.0625 14.71875 69.140625 
Q 20.953125 74.21875 31.78125 74.21875 
Q 42.671875 74.21875 48.875 69.140625 
Q 55.078125 64.0625 55.078125 55.328125 
Q 55.078125 49.078125 51.53125 44.71875 
Q 48 40.375 41.703125 38.8125 
Q 48.828125 37.15625 52.796875 32.3125 
Q 56.78125 27.484375 56.78125 20.515625 
Q 56.78125 9.90625 50.3125 4.234375 
Q 43.84375 -1.421875 31.78125 -1.421875 
Q 19.734375 -1.421875 13.25 4.234375 
Q 6.78125 9.90625 6.78125 20.515625 
Q 6.78125 27.484375 10.78125 32.3125 
Q 14.796875 37.15625 21.921875 38.8125 
z
M 18.3125 54.390625 
Q 18.3125 48.734375 21.84375 45.5625 
Q 25.390625 42.390625 31.78125 42.390625 
Q 38.140625 42.390625 41.71875 45.5625 
Q 45.3125 48.734375 45.3125 54.390625 
Q 45.3125 60.0625 41.71875 63.234375 
Q 38.140625 66.40625 31.78125 66.40625 
Q 25.390625 66.40625 21.84375 63.234375 
Q 18.3125 60.0625 18.3125 54.390625 
z
" id="DejaVuSans-38"/>
      <path d="M 56.203125 29.59375 
L 56.203125 25.203125 
L 14.890625 25.203125 
Q 15.484375 15.921875 20.484375 11.0625 
Q 25.484375 6.203125 34.421875 6.203125 
Q 39.59375 6.203125 44.453125 7.46875 
Q 49.3125 8.734375 54.109375 11.28125 
L 54.109375 2.78125 
Q 49.265625 0.734375 44.1875 -0.34375 
Q 39.109375 -1.421875 33.890625 -1.421875 
Q 20.796875 -1.421875 13.15625 6.1875 
Q 5.515625 13.8125 5.515625 26.8125 
Q 5.515625 40.234375 12.765625 48.109375 
Q 20.015625 56 32.328125 56 
Q 43.359375 56 49.78125 48.890625 
Q 56.203125 41.796875 56.203125 29.59375 
z
M 47.21875 32.234375 
Q 47.125 39.59375 43.09375 43.984375 
Q 39.0625 48.390625 32.421875 48.390625 
Q 24.90625 48.390625 20.390625 44.140625 
Q 15.875 39.890625 15.1875 32.171875 
z
" id="DejaVuSans-65"/>
      <path d="M 4.890625 31.390625 
L 31.203125 31.390625 
L 31.203125 23.390625 
L 4.890625 23.390625 
z
" id="DejaVuSans-2d"/>
      <path d="M 33.015625 40.375 
Q 26.375 40.375 22.484375 35.828125 
Q 18.609375 31.296875 18.609375 23.390625 
Q 18.609375 15.53125 22.484375 10.953125 
Q 26.375 6.390625 33.015625 6.390625 
Q 39.65625 6.390625 43.53125 10.953125 
Q 47.40625 15.53125 47.40625 23.390625 
Q 47.40625 31.296875 43.53125 35.828125 
Q 39.65625 40.375 33.015625 40.375 
z
M 52.59375 71.296875 
L 52.59375 62.3125 
Q 48.875 64.0625 45.09375 64.984375 
Q 41.3125 65.921875 37.59375 65.921875 
Q 27.828125 65.921875 22.671875 59.328125 
Q 17.53125 52.734375 16.796875 39.40625 
Q 19.671875 43.65625 24.015625 45.921875 
Q 28.375 48.1875 33.59375 48.1875 
Q 44.578125 48.1875 50.953125 41.515625 
Q 57.328125 34.859375 57.328125 23.390625 
Q 57.328125 12.15625 50.6875 5.359375 
Q 44.046875 -1.421875 33.015625 -1.421875 
Q 20.359375 -1.421875 13.671875 8.265625 
Q 6.984375 17.96875 6.984375 36.375 
Q 6.984375 53.65625 15.1875 63.9375 
Q 23.390625 74.21875 37.203125 74.21875 
Q 40.921875 74.21875 44.703125 73.484375 
Q 48.484375 72.75 52.59375 71.296875 
z
" id="DejaVuSans-36"/>
     </defs>
     <g transform="translate(135.20375 35.756719)scale(0.14 -0.14)">
      <use transform="translate(0 0.78125)" xlink:href="#DejaVuSans-394"/>
      <use transform="translate(68.408203 0.78125)" xlink:href="#DejaVuSans-Oblique-78"/>
      <use transform="translate(127.587891 0.78125)" xlink:href="#DejaVuSans-20"/>
      <use transform="translate(159.375 0.78125)" xlink:href="#DejaVuSans-3d"/>
      <use transform="translate(243.164062 0.78125)" xlink:href="#DejaVuSans-20"/>
      <use transform="translate(274.951172 0.78125)" xlink:href="#DejaVuSans-30"/>
      <use transform="translate(338.574219 0.78125)" xlink:href="#DejaVuSans-2e"/>
      <use transform="translate(370.361328 0.78125)" xlink:href="#DejaVuSans-30"/>
      <use transform="translate(433.984375 0.78125)" xlink:href="#DejaVuSans-2c"/>
      <use transform="translate(465.771484 0.78125)" xlink:href="#DejaVuSans-20"/>
      <use transform="translate(497.558594 0.78125)" xlink:href="#DejaVuSans-Oblique-3b5"/>
      <use transform="translate(551.611328 -15.625)scale(0.7)" xlink:href="#DejaVuSans-31"/>
      <use transform="translate(598.881836 0.78125)" xlink:href="#DejaVuSans-20"/>
      <use transform="translate(630.668945 0.78125)" xlink:href="#DejaVuSans-3d"/>
      <use transform="translate(714.458008 0.78125)" xlink:href="#DejaVuSans-20"/>
      <use transform="translate(746.245117 0.78125)" xlink:href="#DejaVuSans-32"/>
      <use transform="translate(809.868164 0.78125)" xlink:href="#DejaVuSans-2e"/>
      <use transform="translate(841.624023 0.78125)" xlink:href="#DejaVuSans-38"/>
      <use transform="translate(905.24707 0.78125)" xlink:href="#DejaVuSans-65"/>
      <use transform="translate(966.770508 0.78125)" xlink:href="#DejaVuSans-2d"/>
      <use transform="translate(1002.854492 0.78125)" xlink:href="#DejaVuSans-30"/>
      <use transform="translate(1066.477539 0.78125)" xlink:href="#DejaVuSans-36"/>
      <use transform="translate(1130.100586 0.78125)" xlink:href="#DejaVuSans-2c"/>
      <use transform="translate(1161.887695 0.78125)" xlink:href="#DejaVuSans-20"/>
      <use transform="translate(1193.674805 0.78125)" xlink:href="#DejaVuSans-Oblique-3b5"/>
      <use transform="translate(1247.727539 -15.625)scale(0.7)" xlink:href="#DejaVuSans-32"/>
      <use transform="translate(1294.998047 0.78125)" xlink:href="#DejaVuSans-20"/>
      <use transform="translate(1326.785156 0.78125)" xlink:href="#DejaVuSans-3d"/>
      <use transform="translate(1410.574219 0.78125)" xlink:href="#DejaVuSans-20"/>
      <use transform="translate(1442.361328 0.78125)" xlink:href="#DejaVuSans-36"/>
      <use transform="translate(1505.984375 0.78125)" xlink:href="#DejaVuSans-2e"/>
      <use transform="translate(1537.771484 0.78125)" xlink:href="#DejaVuSans-34"/>
      <use transform="translate(1601.394531 0.78125)" xlink:href="#DejaVuSans-65"/>
      <use transform="translate(1662.917969 0.78125)" xlink:href="#DejaVuSans-2d"/>
      <use transform="translate(1699.001953 0.78125)" xlink:href="#DejaVuSans-31"/>
      <use transform="translate(1762.625 0.78125)" xlink:href="#DejaVuSans-36"/>
     </g>
    </g>
    <g id="line2d_22">
     <path d="M 96.00375 51.406094 
L 124.00375 51.406094 
" style="fill:none;stroke:#660099;stroke-dasharray:5.55,2.4;stroke-dashoffset:0;stroke-width:1.5;"/>
    </g>
    <g id="line2d_23"/>
    <g id="text_17">
     <!-- $\Delta x$ = 0.3, $\varepsilon_1$ = 2.0e-06, $\varepsilon_2$ = 3.3e-15 -->
     <g transform="translate(135.20375 56.306094)scale(0.14 -0.14)">
      <use transform="translate(0 0.78125)" xlink:href="#DejaVuSans-394"/>
      <use transform="translate(68.408203 0.78125)" xlink:href="#DejaVuSans-Oblique-78"/>
      <use transform="translate(127.587891 0.78125)" xlink:href="#DejaVuSans-20"/>
      <use transform="translate(159.375 0.78125)" xlink:href="#DejaVuSans-3d"/>
      <use transform="translate(243.164062 0.78125)" xlink:href="#DejaVuSans-20"/>
      <use transform="translate(274.951172 0.78125)" xlink:href="#DejaVuSans-30"/>
      <use transform="translate(338.574219 0.78125)" xlink:href="#DejaVuSans-2e"/>
      <use transform="translate(370.361328 0.78125)" xlink:href="#DejaVuSans-33"/>
      <use transform="translate(433.984375 0.78125)" xlink:href="#DejaVuSans-2c"/>
      <use transform="translate(465.771484 0.78125)" xlink:href="#DejaVuSans-20"/>
      <use transform="translate(497.558594 0.78125)" xlink:href="#DejaVuSans-Oblique-3b5"/>
      <use transform="translate(551.611328 -15.625)scale(0.7)" xlink:href="#DejaVuSans-31"/>
      <use transform="translate(598.881836 0.78125)" xlink:href="#DejaVuSans-20"/>
      <use transform="translate(630.668945 0.78125)" xlink:href="#DejaVuSans-3d"/>
      <use transform="translate(714.458008 0.78125)" xlink:href="#DejaVuSans-20"/>
      <use transform="translate(746.245117 0.78125)" xlink:href="#DejaVuSans-32"/>
      <use transform="translate(809.868164 0.78125)" xlink:href="#DejaVuSans-2e"/>
      <use transform="translate(841.655273 0.78125)" xlink:href="#DejaVuSans-30"/>
      <use transform="translate(905.27832 0.78125)" xlink:href="#DejaVuSans-65"/>
      <use transform="translate(966.801758 0.78125)" xlink:href="#DejaVuSans-2d"/>
      <use transform="translate(1002.885742 0.78125)" xlink:href="#DejaVuSans-30"/>
      <use transform="translate(1066.508789 0.78125)" xlink:href="#DejaVuSans-36"/>
      <use transform="translate(1130.131836 0.78125)" xlink:href="#DejaVuSans-2c"/>
      <use transform="translate(1161.918945 0.78125)" xlink:href="#DejaVuSans-20"/>
      <use transform="translate(1193.706055 0.78125)" xlink:href="#DejaVuSans-Oblique-3b5"/>
      <use transform="translate(1247.758789 -15.625)scale(0.7)" xlink:href="#DejaVuSans-32"/>
      <use transform="translate(1295.029297 0.78125)" xlink:href="#DejaVuSans-20"/>
      <use transform="translate(1326.816406 0.78125)" xlink:href="#DejaVuSans-3d"/>
      <use transform="translate(1410.605469 0.78125)" xlink:href="#DejaVuSans-20"/>
      <use transform="translate(1442.392578 0.78125)" xlink:href="#DejaVuSans-33"/>
      <use transform="translate(1506.015625 0.78125)" xlink:href="#DejaVuSans-2e"/>
      <use transform="translate(1537.802734 0.78125)" xlink:href="#DejaVuSans-33"/>
      <use transform="translate(1601.425781 0.78125)" xlink:href="#DejaVuSans-65"/>
      <use transform="translate(1662.949219 0.78125)" xlink:href="#DejaVuSans-2d"/>
      <use transform="translate(1699.033203 0.78125)" xlink:href="#DejaVuSans-31"/>
      <use transform="translate(1762.65625 0.78125)" xlink:href="#DejaVuSans-35"/>
     </g>
    </g>
    <g id="line2d_24">
     <path d="M 96.00375 71.955469 
L 124.00375 71.955469 
" style="fill:none;stroke:#cc0033;stroke-dasharray:9.6,2.4,1.5,2.4;stroke-dashoffset:0;stroke-width:1.5;"/>
    </g>
    <g id="line2d_25"/>
    <g id="text_18">
     <!-- $\Delta x$ = 0.6, $\varepsilon_1$ = 1.1e-06, $\varepsilon_2$ = 5.4e-15 -->
     <g transform="translate(135.20375 76.855469)scale(0.14 -0.14)">
      <use transform="translate(0 0.78125)" xlink:href="#DejaVuSans-394"/>
      <use transform="translate(68.408203 0.78125)" xlink:href="#DejaVuSans-Oblique-78"/>
      <use transform="translate(127.587891 0.78125)" xlink:href="#DejaVuSans-20"/>
      <use transform="translate(159.375 0.78125)" xlink:href="#DejaVuSans-3d"/>
      <use transform="translate(243.164062 0.78125)" xlink:href="#DejaVuSans-20"/>
      <use transform="translate(274.951172 0.78125)" xlink:href="#DejaVuSans-30"/>
      <use transform="translate(338.574219 0.78125)" xlink:href="#DejaVuSans-2e"/>
      <use transform="translate(370.361328 0.78125)" xlink:href="#DejaVuSans-36"/>
      <use transform="translate(433.984375 0.78125)" xlink:href="#DejaVuSans-2c"/>
      <use transform="translate(465.771484 0.78125)" xlink:href="#DejaVuSans-20"/>
      <use transform="translate(497.558594 0.78125)" xlink:href="#DejaVuSans-Oblique-3b5"/>
      <use transform="translate(551.611328 -15.625)scale(0.7)" xlink:href="#DejaVuSans-31"/>
      <use transform="translate(598.881836 0.78125)" xlink:href="#DejaVuSans-20"/>
      <use transform="translate(630.668945 0.78125)" xlink:href="#DejaVuSans-3d"/>
      <use transform="translate(714.458008 0.78125)" xlink:href="#DejaVuSans-20"/>
      <use transform="translate(746.245117 0.78125)" xlink:href="#DejaVuSans-31"/>
      <use transform="translate(809.868164 0.78125)" xlink:href="#DejaVuSans-2e"/>
      <use transform="translate(841.655273 0.78125)" xlink:href="#DejaVuSans-31"/>
      <use transform="translate(905.27832 0.78125)" xlink:href="#DejaVuSans-65"/>
      <use transform="translate(966.801758 0.78125)" xlink:href="#DejaVuSans-2d"/>
      <use transform="translate(1002.885742 0.78125)" xlink:href="#DejaVuSans-30"/>
      <use transform="translate(1066.508789 0.78125)" xlink:href="#DejaVuSans-36"/>
      <use transform="translate(1130.131836 0.78125)" xlink:href="#DejaVuSans-2c"/>
      <use transform="translate(1161.918945 0.78125)" xlink:href="#DejaVuSans-20"/>
      <use transform="translate(1193.706055 0.78125)" xlink:href="#DejaVuSans-Oblique-3b5"/>
      <use transform="translate(1247.758789 -15.625)scale(0.7)" xlink:href="#DejaVuSans-32"/>
      <use transform="translate(1295.029297 0.78125)" xlink:href="#DejaVuSans-20"/>
      <use transform="translate(1326.816406 0.78125)" xlink:href="#DejaVuSans-3d"/>
      <use transform="translate(1410.605469 0.78125)" xlink:href="#DejaVuSans-20"/>
      <use transform="translate(1442.392578 0.78125)" xlink:href="#DejaVuSans-35"/>
      <use transform="translate(1506.015625 0.78125)" xlink:href="#DejaVuSans-2e"/>
      <use transform="translate(1537.802734 0.78125)" xlink:href="#DejaVuSans-34"/>
      <use transform="translate(1601.425781 0.78125)" xlink:href="#DejaVuSans-65"/>
      <use transform="translate(1662.949219 0.78125)" xlink:href="#DejaVuSans-2d"/>
      <use transform="translate(1699.033203 0.78125)" xlink:href="#DejaVuSans-31"/>
      <use transform="translate(1762.65625 0.78125)" xlink:href="#DejaVuSans-35"/>
     </g>
    </g>
    <g id="line2d_26">
     <path d="M 96.00375 92.504844 
L 124.00375 92.504844 
" style="fill:none;stroke:#cc3300;stroke-dasharray:1.5,2.475;stroke-dashoffset:0;stroke-width:1.5;"/>
    </g>
    <g id="line2d_27"/>
    <g id="text_19">
     <!-- $\Delta x$ = 0.9, $\varepsilon_1$ = 2.8e-07, $\varepsilon_2$ = 2.3e-15 -->
     <defs>
      <path d="M 10.984375 1.515625 
L 10.984375 10.5 
Q 14.703125 8.734375 18.5 7.8125 
Q 22.3125 6.890625 25.984375 6.890625 
Q 35.75 6.890625 40.890625 13.453125 
Q 46.046875 20.015625 46.78125 33.40625 
Q 43.953125 29.203125 39.59375 26.953125 
Q 35.25 24.703125 29.984375 24.703125 
Q 19.046875 24.703125 12.671875 31.3125 
Q 6.296875 37.9375 6.296875 49.421875 
Q 6.296875 60.640625 12.9375 67.421875 
Q 19.578125 74.21875 30.609375 74.21875 
Q 43.265625 74.21875 49.921875 64.515625 
Q 56.59375 54.828125 56.59375 36.375 
Q 56.59375 19.140625 48.40625 8.859375 
Q 40.234375 -1.421875 26.421875 -1.421875 
Q 22.703125 -1.421875 18.890625 -0.6875 
Q 15.09375 0.046875 10.984375 1.515625 
z
M 30.609375 32.421875 
Q 37.25 32.421875 41.125 36.953125 
Q 45.015625 41.5 45.015625 49.421875 
Q 45.015625 57.28125 41.125 61.84375 
Q 37.25 66.40625 30.609375 66.40625 
Q 23.96875 66.40625 20.09375 61.84375 
Q 16.21875 57.28125 16.21875 49.421875 
Q 16.21875 41.5 20.09375 36.953125 
Q 23.96875 32.421875 30.609375 32.421875 
z
" id="DejaVuSans-39"/>
      <path d="M 8.203125 72.90625 
L 55.078125 72.90625 
L 55.078125 68.703125 
L 28.609375 0 
L 18.3125 0 
L 43.21875 64.59375 
L 8.203125 64.59375 
z
" id="DejaVuSans-37"/>
     </defs>
     <g transform="translate(135.20375 97.404844)scale(0.14 -0.14)">
      <use transform="translate(0 0.78125)" xlink:href="#DejaVuSans-394"/>
      <use transform="translate(68.408203 0.78125)" xlink:href="#DejaVuSans-Oblique-78"/>
      <use transform="translate(127.587891 0.78125)" xlink:href="#DejaVuSans-20"/>
      <use transform="translate(159.375 0.78125)" xlink:href="#DejaVuSans-3d"/>
      <use transform="translate(243.164062 0.78125)" xlink:href="#DejaVuSans-20"/>
      <use transform="translate(274.951172 0.78125)" xlink:href="#DejaVuSans-30"/>
      <use transform="translate(338.574219 0.78125)" xlink:href="#DejaVuSans-2e"/>
      <use transform="translate(370.361328 0.78125)" xlink:href="#DejaVuSans-39"/>
      <use transform="translate(433.984375 0.78125)" xlink:href="#DejaVuSans-2c"/>
      <use transform="translate(465.771484 0.78125)" xlink:href="#DejaVuSans-20"/>
      <use transform="translate(497.558594 0.78125)" xlink:href="#DejaVuSans-Oblique-3b5"/>
      <use transform="translate(551.611328 -15.625)scale(0.7)" xlink:href="#DejaVuSans-31"/>
      <use transform="translate(598.881836 0.78125)" xlink:href="#DejaVuSans-20"/>
      <use transform="translate(630.668945 0.78125)" xlink:href="#DejaVuSans-3d"/>
      <use transform="translate(714.458008 0.78125)" xlink:href="#DejaVuSans-20"/>
      <use transform="translate(746.245117 0.78125)" xlink:href="#DejaVuSans-32"/>
      <use transform="translate(809.868164 0.78125)" xlink:href="#DejaVuSans-2e"/>
      <use transform="translate(841.624023 0.78125)" xlink:href="#DejaVuSans-38"/>
      <use transform="translate(905.24707 0.78125)" xlink:href="#DejaVuSans-65"/>
      <use transform="translate(966.770508 0.78125)" xlink:href="#DejaVuSans-2d"/>
      <use transform="translate(1002.854492 0.78125)" xlink:href="#DejaVuSans-30"/>
      <use transform="translate(1066.477539 0.78125)" xlink:href="#DejaVuSans-37"/>
      <use transform="translate(1130.100586 0.78125)" xlink:href="#DejaVuSans-2c"/>
      <use transform="translate(1161.887695 0.78125)" xlink:href="#DejaVuSans-20"/>
      <use transform="translate(1193.674805 0.78125)" xlink:href="#DejaVuSans-Oblique-3b5"/>
      <use transform="translate(1247.727539 -15.625)scale(0.7)" xlink:href="#DejaVuSans-32"/>
      <use transform="translate(1294.998047 0.78125)" xlink:href="#DejaVuSans-20"/>
      <use transform="translate(1326.785156 0.78125)" xlink:href="#DejaVuSans-3d"/>
      <use transform="translate(1410.574219 0.78125)" xlink:href="#DejaVuSans-20"/>
      <use transform="translate(1442.361328 0.78125)" xlink:href="#DejaVuSans-32"/>
      <use transform="translate(1505.984375 0.78125)" xlink:href="#DejaVuSans-2e"/>
      <use transform="translate(1537.771484 0.78125)" xlink:href="#DejaVuSans-33"/>
      <use transform="translate(1601.394531 0.78125)" xlink:href="#DejaVuSans-65"/>
      <use transform="translate(1662.917969 0.78125)" xlink:href="#DejaVuSans-2d"/>
      <use transform="translate(1699.001953 0.78125)" xlink:href="#DejaVuSans-31"/>
      <use transform="translate(1762.625 0.78125)" xlink:href="#DejaVuSans-35"/>
     </g>
    </g>
    <g id="line2d_28">
     <path d="M 96.00375 113.054219 
L 124.00375 113.054219 
" style="fill:none;stroke:#669900;stroke-linecap:square;stroke-width:1.5;"/>
    </g>
    <g id="line2d_29"/>
    <g id="text_20">
     <!-- $\Delta x$ = 1.2, $\varepsilon_1$ = 1.1e-14, $\varepsilon_2$ = 2.1e-16 -->
     <g transform="translate(135.20375 117.954219)scale(0.14 -0.14)">
      <use transform="translate(0 0.78125)" xlink:href="#DejaVuSans-394"/>
      <use transform="translate(68.408203 0.78125)" xlink:href="#DejaVuSans-Oblique-78"/>
      <use transform="translate(127.587891 0.78125)" xlink:href="#DejaVuSans-20"/>
      <use transform="translate(159.375 0.78125)" xlink:href="#DejaVuSans-3d"/>
      <use transform="translate(243.164062 0.78125)" xlink:href="#DejaVuSans-20"/>
      <use transform="translate(274.951172 0.78125)" xlink:href="#DejaVuSans-31"/>
      <use transform="translate(338.574219 0.78125)" xlink:href="#DejaVuSans-2e"/>
      <use transform="translate(370.283203 0.78125)" xlink:href="#DejaVuSans-32"/>
      <use transform="translate(433.90625 0.78125)" xlink:href="#DejaVuSans-2c"/>
      <use transform="translate(465.693359 0.78125)" xlink:href="#DejaVuSans-20"/>
      <use transform="translate(497.480469 0.78125)" xlink:href="#DejaVuSans-Oblique-3b5"/>
      <use transform="translate(551.533203 -15.625)scale(0.7)" xlink:href="#DejaVuSans-31"/>
      <use transform="translate(598.803711 0.78125)" xlink:href="#DejaVuSans-20"/>
      <use transform="translate(630.59082 0.78125)" xlink:href="#DejaVuSans-3d"/>
      <use transform="translate(714.379883 0.78125)" xlink:href="#DejaVuSans-20"/>
      <use transform="translate(746.166992 0.78125)" xlink:href="#DejaVuSans-31"/>
      <use transform="translate(809.790039 0.78125)" xlink:href="#DejaVuSans-2e"/>
      <use transform="translate(841.577148 0.78125)" xlink:href="#DejaVuSans-31"/>
      <use transform="translate(905.200195 0.78125)" xlink:href="#DejaVuSans-65"/>
      <use transform="translate(966.723633 0.78125)" xlink:href="#DejaVuSans-2d"/>
      <use transform="translate(1002.807617 0.78125)" xlink:href="#DejaVuSans-31"/>
      <use transform="translate(1066.430664 0.78125)" xlink:href="#DejaVuSans-34"/>
      <use transform="translate(1130.053711 0.78125)" xlink:href="#DejaVuSans-2c"/>
      <use transform="translate(1161.84082 0.78125)" xlink:href="#DejaVuSans-20"/>
      <use transform="translate(1193.62793 0.78125)" xlink:href="#DejaVuSans-Oblique-3b5"/>
      <use transform="translate(1247.680664 -15.625)scale(0.7)" xlink:href="#DejaVuSans-32"/>
      <use transform="translate(1294.951172 0.78125)" xlink:href="#DejaVuSans-20"/>
      <use transform="translate(1326.738281 0.78125)" xlink:href="#DejaVuSans-3d"/>
      <use transform="translate(1410.527344 0.78125)" xlink:href="#DejaVuSans-20"/>
      <use transform="translate(1442.314453 0.78125)" xlink:href="#DejaVuSans-32"/>
      <use transform="translate(1505.9375 0.78125)" xlink:href="#DejaVuSans-2e"/>
      <use transform="translate(1537.724609 0.78125)" xlink:href="#DejaVuSans-31"/>
      <use transform="translate(1601.347656 0.78125)" xlink:href="#DejaVuSans-65"/>
      <use transform="translate(1662.871094 0.78125)" xlink:href="#DejaVuSans-2d"/>
      <use transform="translate(1698.955078 0.78125)" xlink:href="#DejaVuSans-31"/>
      <use transform="translate(1762.578125 0.78125)" xlink:href="#DejaVuSans-36"/>
     </g>
    </g>
    <g id="line2d_30">
     <path d="M 96.00375 133.603594 
L 124.00375 133.603594 
" style="fill:none;stroke:#00ff00;stroke-dasharray:5.55,2.4;stroke-dashoffset:0;stroke-width:1.5;"/>
    </g>
    <g id="line2d_31"/>
    <g id="text_21">
     <!-- $\Delta x$ = 1.5, $\varepsilon_1$ = 7.1e-15, $\varepsilon_2$ = 1.8e-16 -->
     <g transform="translate(135.20375 138.503594)scale(0.14 -0.14)">
      <use transform="translate(0 0.78125)" xlink:href="#DejaVuSans-394"/>
      <use transform="translate(68.408203 0.78125)" xlink:href="#DejaVuSans-Oblique-78"/>
      <use transform="translate(127.587891 0.78125)" xlink:href="#DejaVuSans-20"/>
      <use transform="translate(159.375 0.78125)" xlink:href="#DejaVuSans-3d"/>
      <use transform="translate(243.164062 0.78125)" xlink:href="#DejaVuSans-20"/>
      <use transform="translate(274.951172 0.78125)" xlink:href="#DejaVuSans-31"/>
      <use transform="translate(338.574219 0.78125)" xlink:href="#DejaVuSans-2e"/>
      <use transform="translate(370.361328 0.78125)" xlink:href="#DejaVuSans-35"/>
      <use transform="translate(433.984375 0.78125)" xlink:href="#DejaVuSans-2c"/>
      <use transform="translate(465.771484 0.78125)" xlink:href="#DejaVuSans-20"/>
      <use transform="translate(497.558594 0.78125)" xlink:href="#DejaVuSans-Oblique-3b5"/>
      <use transform="translate(551.611328 -15.625)scale(0.7)" xlink:href="#DejaVuSans-31"/>
      <use transform="translate(598.881836 0.78125)" xlink:href="#DejaVuSans-20"/>
      <use transform="translate(630.668945 0.78125)" xlink:href="#DejaVuSans-3d"/>
      <use transform="translate(714.458008 0.78125)" xlink:href="#DejaVuSans-20"/>
      <use transform="translate(746.245117 0.78125)" xlink:href="#DejaVuSans-37"/>
      <use transform="translate(809.868164 0.78125)" xlink:href="#DejaVuSans-2e"/>
      <use transform="translate(841.655273 0.78125)" xlink:href="#DejaVuSans-31"/>
      <use transform="translate(905.27832 0.78125)" xlink:href="#DejaVuSans-65"/>
      <use transform="translate(966.801758 0.78125)" xlink:href="#DejaVuSans-2d"/>
      <use transform="translate(1002.885742 0.78125)" xlink:href="#DejaVuSans-31"/>
      <use transform="translate(1066.508789 0.78125)" xlink:href="#DejaVuSans-35"/>
      <use transform="translate(1130.131836 0.78125)" xlink:href="#DejaVuSans-2c"/>
      <use transform="translate(1161.918945 0.78125)" xlink:href="#DejaVuSans-20"/>
      <use transform="translate(1193.706055 0.78125)" xlink:href="#DejaVuSans-Oblique-3b5"/>
      <use transform="translate(1247.758789 -15.625)scale(0.7)" xlink:href="#DejaVuSans-32"/>
      <use transform="translate(1295.029297 0.78125)" xlink:href="#DejaVuSans-20"/>
      <use transform="translate(1326.816406 0.78125)" xlink:href="#DejaVuSans-3d"/>
      <use transform="translate(1410.605469 0.78125)" xlink:href="#DejaVuSans-20"/>
      <use transform="translate(1442.392578 0.78125)" xlink:href="#DejaVuSans-31"/>
      <use transform="translate(1506.015625 0.78125)" xlink:href="#DejaVuSans-2e"/>
      <use transform="translate(1537.771484 0.78125)" xlink:href="#DejaVuSans-38"/>
      <use transform="translate(1601.394531 0.78125)" xlink:href="#DejaVuSans-65"/>
      <use transform="translate(1662.917969 0.78125)" xlink:href="#DejaVuSans-2d"/>
      <use transform="translate(1699.001953 0.78125)" xlink:href="#DejaVuSans-31"/>
      <use transform="translate(1762.625 0.78125)" xlink:href="#DejaVuSans-36"/>
     </g>
    </g>
   </g>
  </g>
 </g>
 <defs>
  <clipPath id="p2d76152806">
   <rect height="266.112" width="357.12" x="46.46375" y="12.518906"/>
  </clipPath>
 </defs>
</svg>
