<?xml version="1.0" encoding="utf-8" standalone="no"?>
<!DOCTYPE svg PUBLIC "-//W3C//DTD SVG 1.1//EN"
  "http://www.w3.org/Graphics/SVG/1.1/DTD/svg11.dtd">
<!-- Created with matplotlib (http://matplotlib.org/) -->
<svg height="329.736531pt" version="1.1" viewBox="0 0 439.726562 329.736531" width="439.726562pt" xmlns="http://www.w3.org/2000/svg" xmlns:xlink="http://www.w3.org/1999/xlink">
 <defs>
  <style type="text/css">
*{stroke-linecap:butt;stroke-linejoin:round;}
  </style>
 </defs>
 <g id="figure_1">
  <g id="patch_1">
   <path d="M 0 329.736531 
L 439.726562 329.736531 
L 439.726562 0 
L 0 0 
z
" style="fill:#ffffff;"/>
  </g>
  <g id="axes_1">
   <g id="patch_2">
    <path d="M 59.820625 278.630906 
L 416.940625 278.630906 
L 416.940625 12.518906 
L 59.820625 12.518906 
z
" style="fill:#ffffff;"/>
   </g>
   <g id="matplotlib.axis_1">
    <g id="xtick_1">
     <g id="line2d_1">
      <defs>
       <path d="M 0 0 
L 0 3.5 
" id="mbc938f4e23" style="stroke:#000000;stroke-width:0.8;"/>
      </defs>
      <g>
       <use style="stroke:#000000;stroke-width:0.8;" x="59.820625" xlink:href="#mbc938f4e23" y="278.630906"/>
      </g>
     </g>
     <g id="text_1">
      <!-- 0.25 -->
      <defs>
       <path d="M 31.78125 66.40625 
Q 24.171875 66.40625 20.328125 58.90625 
Q 16.5 51.421875 16.5 36.375 
Q 16.5 21.390625 20.328125 13.890625 
Q 24.171875 6.390625 31.78125 6.390625 
Q 39.453125 6.390625 43.28125 13.890625 
Q 47.125 21.390625 47.125 36.375 
Q 47.125 51.421875 43.28125 58.90625 
Q 39.453125 66.40625 31.78125 66.40625 
z
M 31.78125 74.21875 
Q 44.046875 74.21875 50.515625 64.515625 
Q 56.984375 54.828125 56.984375 36.375 
Q 56.984375 17.96875 50.515625 8.265625 
Q 44.046875 -1.421875 31.78125 -1.421875 
Q 19.53125 -1.421875 13.0625 8.265625 
Q 6.59375 17.96875 6.59375 36.375 
Q 6.59375 54.828125 13.0625 64.515625 
Q 19.53125 74.21875 31.78125 74.21875 
z
" id="DejaVuSans-30"/>
       <path d="M 10.6875 12.40625 
L 21 12.40625 
L 21 0 
L 10.6875 0 
z
" id="DejaVuSans-2e"/>
       <path d="M 19.1875 8.296875 
L 53.609375 8.296875 
L 53.609375 0 
L 7.328125 0 
L 7.328125 8.296875 
Q 12.9375 14.109375 22.625 23.890625 
Q 32.328125 33.6875 34.8125 36.53125 
Q 39.546875 41.84375 41.421875 45.53125 
Q 43.3125 49.21875 43.3125 52.78125 
Q 43.3125 58.59375 39.234375 62.25 
Q 35.15625 65.921875 28.609375 65.921875 
Q 23.96875 65.921875 18.8125 64.3125 
Q 13.671875 62.703125 7.8125 59.421875 
L 7.8125 69.390625 
Q 13.765625 71.78125 18.9375 73 
Q 24.125 74.21875 28.421875 74.21875 
Q 39.75 74.21875 46.484375 68.546875 
Q 53.21875 62.890625 53.21875 53.421875 
Q 53.21875 48.921875 51.53125 44.890625 
Q 49.859375 40.875 45.40625 35.40625 
Q 44.1875 33.984375 37.640625 27.21875 
Q 31.109375 20.453125 19.1875 8.296875 
z
" id="DejaVuSans-32"/>
       <path d="M 10.796875 72.90625 
L 49.515625 72.90625 
L 49.515625 64.59375 
L 19.828125 64.59375 
L 19.828125 46.734375 
Q 21.96875 47.46875 24.109375 47.828125 
Q 26.265625 48.1875 28.421875 48.1875 
Q 40.625 48.1875 47.75 41.5 
Q 54.890625 34.8125 54.890625 23.390625 
Q 54.890625 11.625 47.5625 5.09375 
Q 40.234375 -1.421875 26.90625 -1.421875 
Q 22.3125 -1.421875 17.546875 -0.640625 
Q 12.796875 0.140625 7.71875 1.703125 
L 7.71875 11.625 
Q 12.109375 9.234375 16.796875 8.0625 
Q 21.484375 6.890625 26.703125 6.890625 
Q 35.15625 6.890625 40.078125 11.328125 
Q 45.015625 15.765625 45.015625 23.390625 
Q 45.015625 31 40.078125 35.4375 
Q 35.15625 39.890625 26.703125 39.890625 
Q 22.75 39.890625 18.8125 39.015625 
Q 14.890625 38.140625 10.796875 36.28125 
z
" id="DejaVuSans-35"/>
      </defs>
      <g transform="translate(44.234688 296.268719)scale(0.14 -0.14)">
       <use xlink:href="#DejaVuSans-30"/>
       <use x="63.623047" xlink:href="#DejaVuSans-2e"/>
       <use x="95.410156" xlink:href="#DejaVuSans-32"/>
       <use x="159.033203" xlink:href="#DejaVuSans-35"/>
      </g>
     </g>
    </g>
    <g id="xtick_2">
     <g id="line2d_2">
      <g>
       <use style="stroke:#000000;stroke-width:0.8;" x="110.837768" xlink:href="#mbc938f4e23" y="278.630906"/>
      </g>
     </g>
     <g id="text_2">
      <!-- 0.50 -->
      <g transform="translate(95.25183 296.268719)scale(0.14 -0.14)">
       <use xlink:href="#DejaVuSans-30"/>
       <use x="63.623047" xlink:href="#DejaVuSans-2e"/>
       <use x="95.410156" xlink:href="#DejaVuSans-35"/>
       <use x="159.033203" xlink:href="#DejaVuSans-30"/>
      </g>
     </g>
    </g>
    <g id="xtick_3">
     <g id="line2d_3">
      <g>
       <use style="stroke:#000000;stroke-width:0.8;" x="161.854911" xlink:href="#mbc938f4e23" y="278.630906"/>
      </g>
     </g>
     <g id="text_3">
      <!-- 0.75 -->
      <defs>
       <path d="M 8.203125 72.90625 
L 55.078125 72.90625 
L 55.078125 68.703125 
L 28.609375 0 
L 18.3125 0 
L 43.21875 64.59375 
L 8.203125 64.59375 
z
" id="DejaVuSans-37"/>
      </defs>
      <g transform="translate(146.268973 296.268719)scale(0.14 -0.14)">
       <use xlink:href="#DejaVuSans-30"/>
       <use x="63.623047" xlink:href="#DejaVuSans-2e"/>
       <use x="95.410156" xlink:href="#DejaVuSans-37"/>
       <use x="159.033203" xlink:href="#DejaVuSans-35"/>
      </g>
     </g>
    </g>
    <g id="xtick_4">
     <g id="line2d_4">
      <g>
       <use style="stroke:#000000;stroke-width:0.8;" x="212.872054" xlink:href="#mbc938f4e23" y="278.630906"/>
      </g>
     </g>
     <g id="text_4">
      <!-- 1.00 -->
      <defs>
       <path d="M 12.40625 8.296875 
L 28.515625 8.296875 
L 28.515625 63.921875 
L 10.984375 60.40625 
L 10.984375 69.390625 
L 28.421875 72.90625 
L 38.28125 72.90625 
L 38.28125 8.296875 
L 54.390625 8.296875 
L 54.390625 0 
L 12.40625 0 
z
" id="DejaVuSans-31"/>
      </defs>
      <g transform="translate(197.286116 296.268719)scale(0.14 -0.14)">
       <use xlink:href="#DejaVuSans-31"/>
       <use x="63.623047" xlink:href="#DejaVuSans-2e"/>
       <use x="95.410156" xlink:href="#DejaVuSans-30"/>
       <use x="159.033203" xlink:href="#DejaVuSans-30"/>
      </g>
     </g>
    </g>
    <g id="xtick_5">
     <g id="line2d_5">
      <g>
       <use style="stroke:#000000;stroke-width:0.8;" x="263.889196" xlink:href="#mbc938f4e23" y="278.630906"/>
      </g>
     </g>
     <g id="text_5">
      <!-- 1.25 -->
      <g transform="translate(248.303259 296.268719)scale(0.14 -0.14)">
       <use xlink:href="#DejaVuSans-31"/>
       <use x="63.623047" xlink:href="#DejaVuSans-2e"/>
       <use x="95.410156" xlink:href="#DejaVuSans-32"/>
       <use x="159.033203" xlink:href="#DejaVuSans-35"/>
      </g>
     </g>
    </g>
    <g id="xtick_6">
     <g id="line2d_6">
      <g>
       <use style="stroke:#000000;stroke-width:0.8;" x="314.906339" xlink:href="#mbc938f4e23" y="278.630906"/>
      </g>
     </g>
     <g id="text_6">
      <!-- 1.50 -->
      <g transform="translate(299.320402 296.268719)scale(0.14 -0.14)">
       <use xlink:href="#DejaVuSans-31"/>
       <use x="63.623047" xlink:href="#DejaVuSans-2e"/>
       <use x="95.410156" xlink:href="#DejaVuSans-35"/>
       <use x="159.033203" xlink:href="#DejaVuSans-30"/>
      </g>
     </g>
    </g>
    <g id="xtick_7">
     <g id="line2d_7">
      <g>
       <use style="stroke:#000000;stroke-width:0.8;" x="365.923482" xlink:href="#mbc938f4e23" y="278.630906"/>
      </g>
     </g>
     <g id="text_7">
      <!-- 1.75 -->
      <g transform="translate(350.337545 296.268719)scale(0.14 -0.14)">
       <use xlink:href="#DejaVuSans-31"/>
       <use x="63.623047" xlink:href="#DejaVuSans-2e"/>
       <use x="95.410156" xlink:href="#DejaVuSans-37"/>
       <use x="159.033203" xlink:href="#DejaVuSans-35"/>
      </g>
     </g>
    </g>
    <g id="xtick_8">
     <g id="line2d_8">
      <g>
       <use style="stroke:#000000;stroke-width:0.8;" x="416.940625" xlink:href="#mbc938f4e23" y="278.630906"/>
      </g>
     </g>
     <g id="text_8">
      <!-- 2.00 -->
      <g transform="translate(401.354688 296.268719)scale(0.14 -0.14)">
       <use xlink:href="#DejaVuSans-32"/>
       <use x="63.623047" xlink:href="#DejaVuSans-2e"/>
       <use x="95.410156" xlink:href="#DejaVuSans-30"/>
       <use x="159.033203" xlink:href="#DejaVuSans-30"/>
      </g>
     </g>
    </g>
    <g id="text_9">
     <!-- r -->
     <defs>
      <path d="M 41.109375 46.296875 
Q 39.59375 47.171875 37.8125 47.578125 
Q 36.03125 48 33.890625 48 
Q 26.265625 48 22.1875 43.046875 
Q 18.109375 38.09375 18.109375 28.8125 
L 18.109375 0 
L 9.078125 0 
L 9.078125 54.6875 
L 18.109375 54.6875 
L 18.109375 46.1875 
Q 20.953125 51.171875 25.484375 53.578125 
Q 30.03125 56 36.53125 56 
Q 37.453125 56 38.578125 55.875 
Q 39.703125 55.765625 41.0625 55.515625 
z
" id="DejaVuSans-72"/>
     </defs>
     <g transform="translate(234.269688 318.377156)scale(0.2 -0.2)">
      <use xlink:href="#DejaVuSans-72"/>
     </g>
    </g>
   </g>
   <g id="matplotlib.axis_2">
    <g id="ytick_1">
     <g id="line2d_9">
      <defs>
       <path d="M 0 0 
L -3.5 0 
" id="m02050841ba" style="stroke:#000000;stroke-width:0.8;"/>
      </defs>
      <g>
       <use style="stroke:#000000;stroke-width:0.8;" x="59.820625" xlink:href="#m02050841ba" y="271.238906"/>
      </g>
     </g>
     <g id="text_10">
      <!-- 0.0 -->
      <g transform="translate(30.55625 276.557812)scale(0.14 -0.14)">
       <use xlink:href="#DejaVuSans-30"/>
       <use x="63.623047" xlink:href="#DejaVuSans-2e"/>
       <use x="95.410156" xlink:href="#DejaVuSans-30"/>
      </g>
     </g>
    </g>
    <g id="ytick_2">
     <g id="line2d_10">
      <g>
       <use style="stroke:#000000;stroke-width:0.8;" x="59.820625" xlink:href="#m02050841ba" y="234.278906"/>
      </g>
     </g>
     <g id="text_11">
      <!-- 0.5 -->
      <g transform="translate(30.55625 239.597812)scale(0.14 -0.14)">
       <use xlink:href="#DejaVuSans-30"/>
       <use x="63.623047" xlink:href="#DejaVuSans-2e"/>
       <use x="95.410156" xlink:href="#DejaVuSans-35"/>
      </g>
     </g>
    </g>
    <g id="ytick_3">
     <g id="line2d_11">
      <g>
       <use style="stroke:#000000;stroke-width:0.8;" x="59.820625" xlink:href="#m02050841ba" y="197.318906"/>
      </g>
     </g>
     <g id="text_12">
      <!-- 1.0 -->
      <g transform="translate(30.55625 202.637812)scale(0.14 -0.14)">
       <use xlink:href="#DejaVuSans-31"/>
       <use x="63.623047" xlink:href="#DejaVuSans-2e"/>
       <use x="95.410156" xlink:href="#DejaVuSans-30"/>
      </g>
     </g>
    </g>
    <g id="ytick_4">
     <g id="line2d_12">
      <g>
       <use style="stroke:#000000;stroke-width:0.8;" x="59.820625" xlink:href="#m02050841ba" y="160.358906"/>
      </g>
     </g>
     <g id="text_13">
      <!-- 1.5 -->
      <g transform="translate(30.55625 165.677812)scale(0.14 -0.14)">
       <use xlink:href="#DejaVuSans-31"/>
       <use x="63.623047" xlink:href="#DejaVuSans-2e"/>
       <use x="95.410156" xlink:href="#DejaVuSans-35"/>
      </g>
     </g>
    </g>
    <g id="ytick_5">
     <g id="line2d_13">
      <g>
       <use style="stroke:#000000;stroke-width:0.8;" x="59.820625" xlink:href="#m02050841ba" y="123.398906"/>
      </g>
     </g>
     <g id="text_14">
      <!-- 2.0 -->
      <g transform="translate(30.55625 128.717812)scale(0.14 -0.14)">
       <use xlink:href="#DejaVuSans-32"/>
       <use x="63.623047" xlink:href="#DejaVuSans-2e"/>
       <use x="95.410156" xlink:href="#DejaVuSans-30"/>
      </g>
     </g>
    </g>
    <g id="ytick_6">
     <g id="line2d_14">
      <g>
       <use style="stroke:#000000;stroke-width:0.8;" x="59.820625" xlink:href="#m02050841ba" y="86.438906"/>
      </g>
     </g>
     <g id="text_15">
      <!-- 2.5 -->
      <g transform="translate(30.55625 91.757812)scale(0.14 -0.14)">
       <use xlink:href="#DejaVuSans-32"/>
       <use x="63.623047" xlink:href="#DejaVuSans-2e"/>
       <use x="95.410156" xlink:href="#DejaVuSans-35"/>
      </g>
     </g>
    </g>
    <g id="ytick_7">
     <g id="line2d_15">
      <g>
       <use style="stroke:#000000;stroke-width:0.8;" x="59.820625" xlink:href="#m02050841ba" y="49.478906"/>
      </g>
     </g>
     <g id="text_16">
      <!-- 3.0 -->
      <defs>
       <path d="M 40.578125 39.3125 
Q 47.65625 37.796875 51.625 33 
Q 55.609375 28.21875 55.609375 21.1875 
Q 55.609375 10.40625 48.1875 4.484375 
Q 40.765625 -1.421875 27.09375 -1.421875 
Q 22.515625 -1.421875 17.65625 -0.515625 
Q 12.796875 0.390625 7.625 2.203125 
L 7.625 11.71875 
Q 11.71875 9.328125 16.59375 8.109375 
Q 21.484375 6.890625 26.8125 6.890625 
Q 36.078125 6.890625 40.9375 10.546875 
Q 45.796875 14.203125 45.796875 21.1875 
Q 45.796875 27.640625 41.28125 31.265625 
Q 36.765625 34.90625 28.71875 34.90625 
L 20.21875 34.90625 
L 20.21875 43.015625 
L 29.109375 43.015625 
Q 36.375 43.015625 40.234375 45.921875 
Q 44.09375 48.828125 44.09375 54.296875 
Q 44.09375 59.90625 40.109375 62.90625 
Q 36.140625 65.921875 28.71875 65.921875 
Q 24.65625 65.921875 20.015625 65.03125 
Q 15.375 64.15625 9.8125 62.3125 
L 9.8125 71.09375 
Q 15.4375 72.65625 20.34375 73.4375 
Q 25.25 74.21875 29.59375 74.21875 
Q 40.828125 74.21875 47.359375 69.109375 
Q 53.90625 64.015625 53.90625 55.328125 
Q 53.90625 49.265625 50.4375 45.09375 
Q 46.96875 40.921875 40.578125 39.3125 
z
" id="DejaVuSans-33"/>
      </defs>
      <g transform="translate(30.55625 54.797812)scale(0.14 -0.14)">
       <use xlink:href="#DejaVuSans-33"/>
       <use x="63.623047" xlink:href="#DejaVuSans-2e"/>
       <use x="95.410156" xlink:href="#DejaVuSans-30"/>
      </g>
     </g>
    </g>
    <g id="ytick_8">
     <g id="line2d_16">
      <g>
       <use style="stroke:#000000;stroke-width:0.8;" x="59.820625" xlink:href="#m02050841ba" y="12.518906"/>
      </g>
     </g>
     <g id="text_17">
      <!-- 3.5 -->
      <g transform="translate(30.55625 17.837812)scale(0.14 -0.14)">
       <use xlink:href="#DejaVuSans-33"/>
       <use x="63.623047" xlink:href="#DejaVuSans-2e"/>
       <use x="95.410156" xlink:href="#DejaVuSans-35"/>
      </g>
     </g>
    </g>
    <g id="text_18">
     <!-- g(r) -->
     <defs>
      <path d="M 45.40625 27.984375 
Q 45.40625 37.75 41.375 43.109375 
Q 37.359375 48.484375 30.078125 48.484375 
Q 22.859375 48.484375 18.828125 43.109375 
Q 14.796875 37.75 14.796875 27.984375 
Q 14.796875 18.265625 18.828125 12.890625 
Q 22.859375 7.515625 30.078125 7.515625 
Q 37.359375 7.515625 41.375 12.890625 
Q 45.40625 18.265625 45.40625 27.984375 
z
M 54.390625 6.78125 
Q 54.390625 -7.171875 48.1875 -13.984375 
Q 42 -20.796875 29.203125 -20.796875 
Q 24.46875 -20.796875 20.265625 -20.09375 
Q 16.0625 -19.390625 12.109375 -17.921875 
L 12.109375 -9.1875 
Q 16.0625 -11.328125 19.921875 -12.34375 
Q 23.78125 -13.375 27.78125 -13.375 
Q 36.625 -13.375 41.015625 -8.765625 
Q 45.40625 -4.15625 45.40625 5.171875 
L 45.40625 9.625 
Q 42.625 4.78125 38.28125 2.390625 
Q 33.9375 0 27.875 0 
Q 17.828125 0 11.671875 7.65625 
Q 5.515625 15.328125 5.515625 27.984375 
Q 5.515625 40.671875 11.671875 48.328125 
Q 17.828125 56 27.875 56 
Q 33.9375 56 38.28125 53.609375 
Q 42.625 51.21875 45.40625 46.390625 
L 45.40625 54.6875 
L 54.390625 54.6875 
z
" id="DejaVuSans-67"/>
      <path d="M 31 75.875 
Q 24.46875 64.65625 21.28125 53.65625 
Q 18.109375 42.671875 18.109375 31.390625 
Q 18.109375 20.125 21.3125 9.0625 
Q 24.515625 -2 31 -13.1875 
L 23.1875 -13.1875 
Q 15.875 -1.703125 12.234375 9.375 
Q 8.59375 20.453125 8.59375 31.390625 
Q 8.59375 42.28125 12.203125 53.3125 
Q 15.828125 64.359375 23.1875 75.875 
z
" id="DejaVuSans-28"/>
      <path d="M 8.015625 75.875 
L 15.828125 75.875 
Q 23.140625 64.359375 26.78125 53.3125 
Q 30.421875 42.28125 30.421875 31.390625 
Q 30.421875 20.453125 26.78125 9.375 
Q 23.140625 -1.703125 15.828125 -13.1875 
L 8.015625 -13.1875 
Q 14.5 -2 17.703125 9.0625 
Q 20.90625 20.125 20.90625 31.390625 
Q 20.90625 42.671875 17.703125 53.65625 
Q 14.5 64.65625 8.015625 75.875 
z
" id="DejaVuSans-29"/>
     </defs>
     <g transform="translate(22.396875 163.837406)rotate(-90)scale(0.2 -0.2)">
      <use xlink:href="#DejaVuSans-67"/>
      <use x="63.476562" xlink:href="#DejaVuSans-28"/>
      <use x="102.490234" xlink:href="#DejaVuSans-72"/>
      <use x="143.603516" xlink:href="#DejaVuSans-29"/>
     </g>
    </g>
   </g>
   <g id="line2d_17">
    <path clip-path="url(#pb75521a638)" d="M 59.616556 271.238906 
L 110.837768 271.238906 
L 111.041836 266.558343 
L 111.449974 263.113078 
L 112.062179 259.70735 
L 113.082522 255.535426 
L 114.306934 251.583865 
L 115.735414 247.70197 
L 117.572031 243.365237 
L 119.816785 238.66991 
L 122.469676 233.659745 
L 125.530705 228.350917 
L 129.203939 222.425835 
L 133.693448 215.629399 
L 138.999231 208.024599 
L 145.325356 199.366629 
L 152.875894 189.426697 
L 153.079962 189.162616 
L 153.896236 189.256384 
L 161.038636 190.228166 
L 169.609516 191.160049 
L 179.608876 192.016802 
L 191.648922 192.817617 
L 206.137791 193.551432 
L 223.891756 194.221129 
L 246.135231 194.82848 
L 274.500762 195.369663 
L 311.641242 195.843661 
L 314.906339 195.876673 
L 315.110408 203.979378 
L 315.518545 209.924426 
L 316.130751 215.769814 
L 316.947025 221.602789 
L 317.967368 227.450689 
L 319.395848 234.224784 
L 321.028396 240.802445 
L 322.865014 247.283598 
L 325.109768 254.335151 
L 327.558591 261.276047 
L 330.415551 268.671945 
L 331.435894 271.170466 
L 331.844031 271.238906 
L 417.144694 271.238906 
L 417.144694 271.238906 
" style="fill:none;stroke:#0000ff;stroke-linecap:square;stroke-width:1.5;"/>
   </g>
   <g id="line2d_18">
    <path clip-path="url(#pb75521a638)" d="M 59.616556 271.238906 
L 110.837768 271.238906 
L 111.041836 266.558343 
L 111.449974 263.113078 
L 112.062179 259.70735 
L 113.082522 255.535426 
L 114.306934 251.583865 
L 115.735414 247.70197 
L 117.572031 243.365237 
L 119.816785 238.66991 
L 122.469676 233.659745 
L 125.530705 228.350917 
L 129.203939 222.425835 
L 133.693448 215.629399 
L 138.999231 208.024599 
L 139.611436 207.273952 
L 148.794522 201.429483 
L 161.038636 193.91648 
L 168.181036 189.621909 
L 182.873974 191.27086 
L 193.281471 192.110523 
L 205.933722 192.898676 
L 221.238865 193.621088 
L 240.217242 194.284685 
L 263.889196 194.881006 
L 294.295414 195.414157 
L 314.906339 195.67977 
L 315.110408 203.782787 
L 315.518545 209.728459 
L 316.130751 215.574777 
L 316.947025 221.40898 
L 317.967368 227.258399 
L 319.395848 234.034589 
L 321.028396 240.614601 
L 322.865014 247.098344 
L 325.109768 254.152987 
L 325.721974 255.77971 
L 328.374865 259.450465 
L 331.435894 263.318097 
L 335.109128 267.584545 
L 338.374225 271.121015 
L 338.782362 271.238906 
L 417.144694 271.238906 
L 417.144694 271.238906 
" style="fill:none;stroke:#5400ab;stroke-dasharray:5.55,2.4;stroke-dashoffset:0;stroke-width:1.5;"/>
   </g>
   <g id="line2d_19">
    <path clip-path="url(#pb75521a638)" d="M 59.616556 271.238906 
L 110.837768 271.238906 
L 111.041836 266.558343 
L 111.449974 263.113078 
L 112.062179 259.70735 
L 113.082522 255.535426 
L 114.306934 251.583865 
L 115.735414 247.70197 
L 117.572031 243.365237 
L 119.816785 238.66991 
L 122.469676 233.659745 
L 125.530705 228.350917 
L 127.775459 224.68322 
L 129.408008 223.413855 
L 134.713791 219.529142 
L 141.448054 214.883957 
L 150.018934 209.256023 
L 161.038636 202.301853 
L 175.323436 193.56381 
L 184.302454 188.17145 
L 185.118728 188.271015 
L 191.852991 189.265074 
L 199.811665 190.210952 
L 209.402888 191.11817 
L 220.830728 191.967021 
L 234.503322 192.753853 
L 251.236945 193.486714 
L 271.847871 194.158331 
L 297.560511 194.765604 
L 314.906339 195.078091 
L 315.110408 203.182084 
L 315.518545 209.1297 
L 316.130751 214.978916 
L 316.947025 220.816949 
L 317.967368 226.671101 
L 319.395848 233.453817 
L 320.824328 239.267134 
L 321.232465 240.310748 
L 323.273151 243.861778 
L 325.721974 247.637705 
L 328.374865 251.322795 
L 331.435894 255.206439 
L 335.109128 259.49139 
L 339.190499 263.900933 
L 343.884076 268.63325 
L 346.536968 271.182072 
L 347.149174 271.238906 
L 417.144694 271.238906 
L 417.144694 271.238906 
" style="fill:none;stroke:#aa0055;stroke-dasharray:9.6,2.4,1.5,2.4;stroke-dashoffset:0;stroke-width:1.5;"/>
   </g>
   <g id="line2d_20">
    <path clip-path="url(#pb75521a638)" d="M 59.616556 271.238906 
L 110.837768 271.238906 
L 111.041836 266.558343 
L 111.449974 263.113078 
L 112.062179 259.70735 
L 113.082522 255.535426 
L 114.306934 251.583865 
L 115.735414 247.70197 
L 117.572031 243.365237 
L 118.796442 240.843157 
L 121.653402 238.069024 
L 125.122568 235.031987 
L 129.408008 231.591455 
L 134.713791 227.631555 
L 141.243985 223.045684 
L 149.406728 217.594661 
L 159.814225 210.926395 
L 173.078682 202.706024 
L 190.424511 192.233546 
L 201.240145 185.803388 
L 201.648282 185.824888 
L 207.362202 186.922946 
L 214.096465 187.987072 
L 222.055139 189.012294 
L 231.442294 189.988727 
L 242.461996 190.905397 
L 255.726454 191.776566 
L 271.643802 192.5888 
L 290.826248 193.336558 
L 314.294134 194.021425 
L 314.906339 194.036729 
L 315.110408 202.142484 
L 315.518545 208.093608 
L 316.130751 213.948052 
L 316.947025 219.792989 
L 317.559231 223.445101 
L 318.171436 225.239262 
L 319.599916 228.567436 
L 321.232465 231.827795 
L 323.273151 235.396193 
L 325.721974 239.192386 
L 328.374865 242.898747 
L 331.435894 246.806092 
L 335.109128 251.118357 
L 339.190499 255.55689 
L 343.884076 260.320893 
L 349.189859 265.376934 
L 355.107848 270.703504 
L 355.720054 271.238906 
L 417.144694 271.238906 
L 417.144694 271.238906 
" style="fill:none;stroke:#fe0100;stroke-dasharray:1.5,2.475;stroke-dashoffset:0;stroke-width:1.5;"/>
   </g>
   <g id="line2d_21">
    <path clip-path="url(#pb75521a638)" d="M 59.616556 271.238906 
L 110.837768 271.238906 
L 111.041836 266.558343 
L 111.449974 263.113078 
L 112.062179 259.70735 
L 112.878454 256.320894 
L 114.102865 254.27647 
L 115.735414 252.032817 
L 117.776099 249.641196 
L 120.224922 247.119049 
L 123.285951 244.289005 
L 127.163254 241.024257 
L 131.856831 237.373941 
L 137.774819 233.069703 
L 145.121288 228.019825 
L 154.304374 221.99423 
L 165.732214 214.771674 
L 180.425151 205.758514 
L 199.607596 194.26322 
L 218.790042 182.949573 
L 219.198179 182.960009 
L 224.299894 184.190531 
L 230.217882 185.381673 
L 237.156214 186.540225 
L 245.114888 187.636531 
L 254.502042 188.695685 
L 265.317676 189.687082 
L 278.173996 190.635088 
L 293.275071 191.519787 
L 311.437174 192.352989 
L 314.906339 192.490017 
L 315.110408 200.598565 
L 315.518545 206.555251 
L 315.926682 208.99751 
L 316.742956 212.146265 
L 317.763299 215.227091 
L 319.191779 218.753119 
L 320.824328 222.155335 
L 322.865014 225.844974 
L 325.109768 229.437819 
L 327.762659 233.26044 
L 330.823688 237.272403 
L 334.292854 241.449296 
L 338.374225 245.996308 
L 342.863734 250.658069 
L 347.965448 255.630728 
L 353.679368 260.887726 
L 360.209562 266.585805 
L 365.719414 271.19105 
L 366.331619 271.238906 
L 417.144694 271.238906 
L 417.144694 271.238906 
" style="fill:none;stroke:#aa5500;stroke-linecap:square;stroke-width:1.5;"/>
   </g>
   <g id="line2d_22">
    <path clip-path="url(#pb75521a638)" d="M 59.616556 271.238906 
L 110.837768 271.238906 
L 111.041836 268.898625 
L 111.449974 267.175992 
L 112.062179 265.473128 
L 113.082522 263.387166 
L 114.306934 261.411386 
L 115.939482 259.214455 
L 117.980168 256.854748 
L 120.633059 254.158033 
L 123.898156 251.184883 
L 127.775459 247.961063 
L 132.673105 244.18938 
L 138.795162 239.774676 
L 146.345699 234.620347 
L 155.732854 228.493399 
L 167.568831 221.043609 
L 182.873974 211.686063 
L 202.872694 199.7329 
L 229.809745 183.90591 
L 236.952145 179.742558 
L 245.318956 182.069505 
L 251.032876 183.335027 
L 257.563071 184.553355 
L 265.113608 185.734428 
L 273.888556 186.877393 
L 284.091985 187.9753 
L 295.927962 189.018622 
L 309.804625 190.010913 
L 314.906339 190.326704 
L 315.110408 194.3892 
L 315.518545 197.383914 
L 316.130751 200.339648 
L 316.947025 203.299738 
L 318.171436 206.812643 
L 319.599916 210.187889 
L 321.232465 213.500811 
L 323.273151 217.133129 
L 325.721974 221.003522 
L 328.578934 225.06462 
L 331.844031 229.28886 
L 335.517265 233.660362 
L 339.598636 238.170309 
L 344.292214 243.018813 
L 349.597996 248.169951 
L 355.515985 253.599713 
L 362.250248 259.466281 
L 369.800785 265.73757 
L 376.739116 271.238906 
L 417.144694 271.238906 
L 417.144694 271.238906 
" style="fill:none;stroke:#54ab00;stroke-dasharray:5.55,2.4;stroke-dashoffset:0;stroke-width:1.5;"/>
   </g>
   <g id="line2d_23">
    <path clip-path="url(#pb75521a638)" d="M 59.616556 271.238906 
L 112.878454 271.201305 
L 114.102865 269.154612 
L 115.735414 266.908059 
L 117.776099 264.512998 
L 120.224922 261.986975 
L 123.285951 259.152438 
L 127.163254 255.8825 
L 131.856831 252.226558 
L 137.774819 247.916097 
L 145.121288 242.859608 
L 154.100305 236.95863 
L 165.528145 229.724795 
L 180.221082 220.701342 
L 199.403528 209.196777 
L 225.116168 194.051152 
L 255.318316 176.480642 
L 255.726454 176.57601 
L 259.807825 177.999375 
L 264.501402 179.399714 
L 269.807185 180.751562 
L 275.929242 182.079741 
L 282.867574 183.356635 
L 290.826248 184.594113 
L 300.009334 185.793134 
L 310.620899 186.94817 
L 315.518545 187.414993 
L 316.130751 190.013873 
L 317.151094 193.650752 
L 318.375505 197.076984 
L 319.803985 200.416379 
L 321.640602 204.107535 
L 323.681288 207.709996 
L 326.130111 211.576711 
L 328.987071 215.655553 
L 332.252168 219.914585 
L 335.925402 224.334209 
L 340.006774 228.902521 
L 344.700351 233.820076 
L 350.006134 239.048646 
L 355.924122 244.561946 
L 362.454316 250.342426 
L 369.800785 256.547618 
L 377.963528 263.150878 
L 387.146614 270.289998 
L 388.371025 271.222239 
L 389.799505 271.238906 
L 417.144694 271.238906 
L 417.144694 271.238906 
" style="fill:none;stroke:#00ff00;stroke-dasharray:9.6,2.4,1.5,2.4;stroke-dashoffset:0;stroke-width:1.5;"/>
   </g>
   <g id="patch_3">
    <path d="M 59.820625 278.630906 
L 59.820625 12.518906 
" style="fill:none;stroke:#000000;stroke-linecap:square;stroke-linejoin:miter;stroke-width:0.8;"/>
   </g>
   <g id="patch_4">
    <path d="M 416.940625 278.630906 
L 416.940625 12.518906 
" style="fill:none;stroke:#000000;stroke-linecap:square;stroke-linejoin:miter;stroke-width:0.8;"/>
   </g>
   <g id="patch_5">
    <path d="M 59.820625 278.630906 
L 416.940625 278.630906 
" style="fill:none;stroke:#000000;stroke-linecap:square;stroke-linejoin:miter;stroke-width:0.8;"/>
   </g>
   <g id="patch_6">
    <path d="M 59.820625 12.518906 
L 416.940625 12.518906 
" style="fill:none;stroke:#000000;stroke-linecap:square;stroke-linejoin:miter;stroke-width:0.8;"/>
   </g>
   <g id="legend_1">
    <g id="patch_7">
     <path d="M 106.560625 167.564531 
L 407.140625 167.564531 
Q 409.940625 167.564531 409.940625 164.764531 
L 409.940625 22.318906 
Q 409.940625 19.518906 407.140625 19.518906 
L 106.560625 19.518906 
Q 103.760625 19.518906 103.760625 22.318906 
L 103.760625 164.764531 
Q 103.760625 167.564531 106.560625 167.564531 
z
" style="fill:#ffffff;opacity:0.8;stroke:#cccccc;stroke-linejoin:miter;"/>
    </g>
    <g id="line2d_24">
     <path d="M 109.360625 30.856719 
L 137.360625 30.856719 
" style="fill:none;stroke:#0000ff;stroke-linecap:square;stroke-width:1.5;"/>
    </g>
    <g id="line2d_25"/>
    <g id="text_19">
     <!-- $\Delta x$ = 0.5, $\varepsilon_1$ = 1.1e-14, $\varepsilon_2$ = 1.6e-16 -->
     <defs>
      <path d="M 34.1875 63.1875 
L 14.15625 8.203125 
L 54.25 8.203125 
z
M 0.78125 0 
L 28.609375 72.90625 
L 39.796875 72.90625 
L 67.578125 0 
z
" id="DejaVuSans-394"/>
      <path d="M 60.015625 54.6875 
L 34.90625 27.875 
L 50.296875 0 
L 39.984375 0 
L 28.421875 21.6875 
L 8.296875 0 
L -2.59375 0 
L 24.3125 28.8125 
L 10.015625 54.6875 
L 20.3125 54.6875 
L 30.8125 34.90625 
L 49.125 54.6875 
z
" id="DejaVuSans-Oblique-78"/>
      <path id="DejaVuSans-20"/>
      <path d="M 10.59375 45.40625 
L 73.1875 45.40625 
L 73.1875 37.203125 
L 10.59375 37.203125 
z
M 10.59375 25.484375 
L 73.1875 25.484375 
L 73.1875 17.1875 
L 10.59375 17.1875 
z
" id="DejaVuSans-3d"/>
      <path d="M 11.71875 12.40625 
L 22.015625 12.40625 
L 22.015625 4 
L 14.015625 -11.625 
L 7.71875 -11.625 
L 11.71875 4 
z
" id="DejaVuSans-2c"/>
      <path d="M 19.734375 29.5 
Q 14.453125 30.671875 12.15625 33.84375 
Q 10.453125 36.078125 10.453125 39.109375 
Q 10.453125 47.40625 18.359375 52.25 
Q 24.609375 56.0625 34.1875 56.0625 
Q 37.890625 56.0625 41.9375 55.46875 
Q 46 54.890625 50.53125 53.71875 
L 48.96875 45.5625 
Q 44.484375 46.96875 40.71875 47.609375 
Q 36.859375 48.25 33.40625 48.25 
Q 27.59375 48.25 23.78125 46 
Q 19.1875 43.3125 19.1875 39.40625 
Q 19.1875 36.8125 21.578125 35.015625 
Q 24.421875 32.859375 30.078125 32.859375 
L 37.640625 32.859375 
L 36.234375 25.4375 
L 29 25.4375 
Q 22.265625 25.4375 18.3125 22.953125 
Q 12.9375 19.578125 12.9375 14.3125 
Q 12.9375 10.984375 15.828125 8.796875 
Q 19.4375 6.0625 26.8125 6.0625 
Q 31.34375 6.0625 35.6875 6.9375 
Q 40.046875 7.859375 43.84375 9.671875 
L 42.1875 1.3125 
Q 37.546875 -0.046875 33.296875 -0.734375 
Q 29.046875 -1.421875 25.140625 -1.421875 
Q 13.53125 -1.421875 8.0625 3.03125 
Q 3.90625 6.453125 3.90625 12.203125 
Q 3.90625 19.96875 9.375 24.75 
Q 13.421875 28.328125 19.734375 29.5 
z
" id="DejaVuSans-Oblique-3b5"/>
      <path d="M 56.203125 29.59375 
L 56.203125 25.203125 
L 14.890625 25.203125 
Q 15.484375 15.921875 20.484375 11.0625 
Q 25.484375 6.203125 34.421875 6.203125 
Q 39.59375 6.203125 44.453125 7.46875 
Q 49.3125 8.734375 54.109375 11.28125 
L 54.109375 2.78125 
Q 49.265625 0.734375 44.1875 -0.34375 
Q 39.109375 -1.421875 33.890625 -1.421875 
Q 20.796875 -1.421875 13.15625 6.1875 
Q 5.515625 13.8125 5.515625 26.8125 
Q 5.515625 40.234375 12.765625 48.109375 
Q 20.015625 56 32.328125 56 
Q 43.359375 56 49.78125 48.890625 
Q 56.203125 41.796875 56.203125 29.59375 
z
M 47.21875 32.234375 
Q 47.125 39.59375 43.09375 43.984375 
Q 39.0625 48.390625 32.421875 48.390625 
Q 24.90625 48.390625 20.390625 44.140625 
Q 15.875 39.890625 15.1875 32.171875 
z
" id="DejaVuSans-65"/>
      <path d="M 4.890625 31.390625 
L 31.203125 31.390625 
L 31.203125 23.390625 
L 4.890625 23.390625 
z
" id="DejaVuSans-2d"/>
      <path d="M 37.796875 64.3125 
L 12.890625 25.390625 
L 37.796875 25.390625 
z
M 35.203125 72.90625 
L 47.609375 72.90625 
L 47.609375 25.390625 
L 58.015625 25.390625 
L 58.015625 17.1875 
L 47.609375 17.1875 
L 47.609375 0 
L 37.796875 0 
L 37.796875 17.1875 
L 4.890625 17.1875 
L 4.890625 26.703125 
z
" id="DejaVuSans-34"/>
      <path d="M 33.015625 40.375 
Q 26.375 40.375 22.484375 35.828125 
Q 18.609375 31.296875 18.609375 23.390625 
Q 18.609375 15.53125 22.484375 10.953125 
Q 26.375 6.390625 33.015625 6.390625 
Q 39.65625 6.390625 43.53125 10.953125 
Q 47.40625 15.53125 47.40625 23.390625 
Q 47.40625 31.296875 43.53125 35.828125 
Q 39.65625 40.375 33.015625 40.375 
z
M 52.59375 71.296875 
L 52.59375 62.3125 
Q 48.875 64.0625 45.09375 64.984375 
Q 41.3125 65.921875 37.59375 65.921875 
Q 27.828125 65.921875 22.671875 59.328125 
Q 17.53125 52.734375 16.796875 39.40625 
Q 19.671875 43.65625 24.015625 45.921875 
Q 28.375 48.1875 33.59375 48.1875 
Q 44.578125 48.1875 50.953125 41.515625 
Q 57.328125 34.859375 57.328125 23.390625 
Q 57.328125 12.15625 50.6875 5.359375 
Q 44.046875 -1.421875 33.015625 -1.421875 
Q 20.359375 -1.421875 13.671875 8.265625 
Q 6.984375 17.96875 6.984375 36.375 
Q 6.984375 53.65625 15.1875 63.9375 
Q 23.390625 74.21875 37.203125 74.21875 
Q 40.921875 74.21875 44.703125 73.484375 
Q 48.484375 72.75 52.59375 71.296875 
z
" id="DejaVuSans-36"/>
     </defs>
     <g transform="translate(148.560625 35.756719)scale(0.14 -0.14)">
      <use transform="translate(0 0.78125)" xlink:href="#DejaVuSans-394"/>
      <use transform="translate(68.408203 0.78125)" xlink:href="#DejaVuSans-Oblique-78"/>
      <use transform="translate(127.587891 0.78125)" xlink:href="#DejaVuSans-20"/>
      <use transform="translate(159.375 0.78125)" xlink:href="#DejaVuSans-3d"/>
      <use transform="translate(243.164062 0.78125)" xlink:href="#DejaVuSans-20"/>
      <use transform="translate(274.951172 0.78125)" xlink:href="#DejaVuSans-30"/>
      <use transform="translate(338.574219 0.78125)" xlink:href="#DejaVuSans-2e"/>
      <use transform="translate(370.361328 0.78125)" xlink:href="#DejaVuSans-35"/>
      <use transform="translate(433.984375 0.78125)" xlink:href="#DejaVuSans-2c"/>
      <use transform="translate(465.771484 0.78125)" xlink:href="#DejaVuSans-20"/>
      <use transform="translate(497.558594 0.78125)" xlink:href="#DejaVuSans-Oblique-3b5"/>
      <use transform="translate(551.611328 -15.625)scale(0.7)" xlink:href="#DejaVuSans-31"/>
      <use transform="translate(598.881836 0.78125)" xlink:href="#DejaVuSans-20"/>
      <use transform="translate(630.668945 0.78125)" xlink:href="#DejaVuSans-3d"/>
      <use transform="translate(714.458008 0.78125)" xlink:href="#DejaVuSans-20"/>
      <use transform="translate(746.245117 0.78125)" xlink:href="#DejaVuSans-31"/>
      <use transform="translate(809.868164 0.78125)" xlink:href="#DejaVuSans-2e"/>
      <use transform="translate(841.655273 0.78125)" xlink:href="#DejaVuSans-31"/>
      <use transform="translate(905.27832 0.78125)" xlink:href="#DejaVuSans-65"/>
      <use transform="translate(966.801758 0.78125)" xlink:href="#DejaVuSans-2d"/>
      <use transform="translate(1002.885742 0.78125)" xlink:href="#DejaVuSans-31"/>
      <use transform="translate(1066.508789 0.78125)" xlink:href="#DejaVuSans-34"/>
      <use transform="translate(1130.131836 0.78125)" xlink:href="#DejaVuSans-2c"/>
      <use transform="translate(1161.918945 0.78125)" xlink:href="#DejaVuSans-20"/>
      <use transform="translate(1193.706055 0.78125)" xlink:href="#DejaVuSans-Oblique-3b5"/>
      <use transform="translate(1247.758789 -15.625)scale(0.7)" xlink:href="#DejaVuSans-32"/>
      <use transform="translate(1295.029297 0.78125)" xlink:href="#DejaVuSans-20"/>
      <use transform="translate(1326.816406 0.78125)" xlink:href="#DejaVuSans-3d"/>
      <use transform="translate(1410.605469 0.78125)" xlink:href="#DejaVuSans-20"/>
      <use transform="translate(1442.392578 0.78125)" xlink:href="#DejaVuSans-31"/>
      <use transform="translate(1506.015625 0.78125)" xlink:href="#DejaVuSans-2e"/>
      <use transform="translate(1537.802734 0.78125)" xlink:href="#DejaVuSans-36"/>
      <use transform="translate(1601.425781 0.78125)" xlink:href="#DejaVuSans-65"/>
      <use transform="translate(1662.949219 0.78125)" xlink:href="#DejaVuSans-2d"/>
      <use transform="translate(1699.033203 0.78125)" xlink:href="#DejaVuSans-31"/>
      <use transform="translate(1762.65625 0.78125)" xlink:href="#DejaVuSans-36"/>
     </g>
    </g>
    <g id="line2d_26">
     <path d="M 109.360625 51.406094 
L 137.360625 51.406094 
" style="fill:none;stroke:#5400ab;stroke-dasharray:5.55,2.4;stroke-dashoffset:0;stroke-width:1.5;"/>
    </g>
    <g id="line2d_27"/>
    <g id="text_20">
     <!-- $\Delta x$ = 0.6, $\varepsilon_1$ = 2.3e-15, $\varepsilon_2$ = 1.4e-16 -->
     <g transform="translate(148.560625 56.306094)scale(0.14 -0.14)">
      <use transform="translate(0 0.78125)" xlink:href="#DejaVuSans-394"/>
      <use transform="translate(68.408203 0.78125)" xlink:href="#DejaVuSans-Oblique-78"/>
      <use transform="translate(127.587891 0.78125)" xlink:href="#DejaVuSans-20"/>
      <use transform="translate(159.375 0.78125)" xlink:href="#DejaVuSans-3d"/>
      <use transform="translate(243.164062 0.78125)" xlink:href="#DejaVuSans-20"/>
      <use transform="translate(274.951172 0.78125)" xlink:href="#DejaVuSans-30"/>
      <use transform="translate(338.574219 0.78125)" xlink:href="#DejaVuSans-2e"/>
      <use transform="translate(370.361328 0.78125)" xlink:href="#DejaVuSans-36"/>
      <use transform="translate(433.984375 0.78125)" xlink:href="#DejaVuSans-2c"/>
      <use transform="translate(465.771484 0.78125)" xlink:href="#DejaVuSans-20"/>
      <use transform="translate(497.558594 0.78125)" xlink:href="#DejaVuSans-Oblique-3b5"/>
      <use transform="translate(551.611328 -15.625)scale(0.7)" xlink:href="#DejaVuSans-31"/>
      <use transform="translate(598.881836 0.78125)" xlink:href="#DejaVuSans-20"/>
      <use transform="translate(630.668945 0.78125)" xlink:href="#DejaVuSans-3d"/>
      <use transform="translate(714.458008 0.78125)" xlink:href="#DejaVuSans-20"/>
      <use transform="translate(746.245117 0.78125)" xlink:href="#DejaVuSans-32"/>
      <use transform="translate(809.868164 0.78125)" xlink:href="#DejaVuSans-2e"/>
      <use transform="translate(841.655273 0.78125)" xlink:href="#DejaVuSans-33"/>
      <use transform="translate(905.27832 0.78125)" xlink:href="#DejaVuSans-65"/>
      <use transform="translate(966.801758 0.78125)" xlink:href="#DejaVuSans-2d"/>
      <use transform="translate(1002.885742 0.78125)" xlink:href="#DejaVuSans-31"/>
      <use transform="translate(1066.508789 0.78125)" xlink:href="#DejaVuSans-35"/>
      <use transform="translate(1130.131836 0.78125)" xlink:href="#DejaVuSans-2c"/>
      <use transform="translate(1161.918945 0.78125)" xlink:href="#DejaVuSans-20"/>
      <use transform="translate(1193.706055 0.78125)" xlink:href="#DejaVuSans-Oblique-3b5"/>
      <use transform="translate(1247.758789 -15.625)scale(0.7)" xlink:href="#DejaVuSans-32"/>
      <use transform="translate(1295.029297 0.78125)" xlink:href="#DejaVuSans-20"/>
      <use transform="translate(1326.816406 0.78125)" xlink:href="#DejaVuSans-3d"/>
      <use transform="translate(1410.605469 0.78125)" xlink:href="#DejaVuSans-20"/>
      <use transform="translate(1442.392578 0.78125)" xlink:href="#DejaVuSans-31"/>
      <use transform="translate(1506.015625 0.78125)" xlink:href="#DejaVuSans-2e"/>
      <use transform="translate(1537.802734 0.78125)" xlink:href="#DejaVuSans-34"/>
      <use transform="translate(1601.425781 0.78125)" xlink:href="#DejaVuSans-65"/>
      <use transform="translate(1662.949219 0.78125)" xlink:href="#DejaVuSans-2d"/>
      <use transform="translate(1699.033203 0.78125)" xlink:href="#DejaVuSans-31"/>
      <use transform="translate(1762.65625 0.78125)" xlink:href="#DejaVuSans-36"/>
     </g>
    </g>
    <g id="line2d_28">
     <path d="M 109.360625 71.955469 
L 137.360625 71.955469 
" style="fill:none;stroke:#aa0055;stroke-dasharray:9.6,2.4,1.5,2.4;stroke-dashoffset:0;stroke-width:1.5;"/>
    </g>
    <g id="line2d_29"/>
    <g id="text_21">
     <!-- $\Delta x$ = 0.7, $\varepsilon_1$ = 1.1e-14, $\varepsilon_2$ = 2.8e-16 -->
     <defs>
      <path d="M 31.78125 34.625 
Q 24.75 34.625 20.71875 30.859375 
Q 16.703125 27.09375 16.703125 20.515625 
Q 16.703125 13.921875 20.71875 10.15625 
Q 24.75 6.390625 31.78125 6.390625 
Q 38.8125 6.390625 42.859375 10.171875 
Q 46.921875 13.96875 46.921875 20.515625 
Q 46.921875 27.09375 42.890625 30.859375 
Q 38.875 34.625 31.78125 34.625 
z
M 21.921875 38.8125 
Q 15.578125 40.375 12.03125 44.71875 
Q 8.5 49.078125 8.5 55.328125 
Q 8.5 64.0625 14.71875 69.140625 
Q 20.953125 74.21875 31.78125 74.21875 
Q 42.671875 74.21875 48.875 69.140625 
Q 55.078125 64.0625 55.078125 55.328125 
Q 55.078125 49.078125 51.53125 44.71875 
Q 48 40.375 41.703125 38.8125 
Q 48.828125 37.15625 52.796875 32.3125 
Q 56.78125 27.484375 56.78125 20.515625 
Q 56.78125 9.90625 50.3125 4.234375 
Q 43.84375 -1.421875 31.78125 -1.421875 
Q 19.734375 -1.421875 13.25 4.234375 
Q 6.78125 9.90625 6.78125 20.515625 
Q 6.78125 27.484375 10.78125 32.3125 
Q 14.796875 37.15625 21.921875 38.8125 
z
M 18.3125 54.390625 
Q 18.3125 48.734375 21.84375 45.5625 
Q 25.390625 42.390625 31.78125 42.390625 
Q 38.140625 42.390625 41.71875 45.5625 
Q 45.3125 48.734375 45.3125 54.390625 
Q 45.3125 60.0625 41.71875 63.234375 
Q 38.140625 66.40625 31.78125 66.40625 
Q 25.390625 66.40625 21.84375 63.234375 
Q 18.3125 60.0625 18.3125 54.390625 
z
" id="DejaVuSans-38"/>
     </defs>
     <g transform="translate(148.560625 76.855469)scale(0.14 -0.14)">
      <use transform="translate(0 0.78125)" xlink:href="#DejaVuSans-394"/>
      <use transform="translate(68.408203 0.78125)" xlink:href="#DejaVuSans-Oblique-78"/>
      <use transform="translate(127.587891 0.78125)" xlink:href="#DejaVuSans-20"/>
      <use transform="translate(159.375 0.78125)" xlink:href="#DejaVuSans-3d"/>
      <use transform="translate(243.164062 0.78125)" xlink:href="#DejaVuSans-20"/>
      <use transform="translate(274.951172 0.78125)" xlink:href="#DejaVuSans-30"/>
      <use transform="translate(338.574219 0.78125)" xlink:href="#DejaVuSans-2e"/>
      <use transform="translate(370.251953 0.78125)" xlink:href="#DejaVuSans-37"/>
      <use transform="translate(433.875 0.78125)" xlink:href="#DejaVuSans-2c"/>
      <use transform="translate(465.662109 0.78125)" xlink:href="#DejaVuSans-20"/>
      <use transform="translate(497.449219 0.78125)" xlink:href="#DejaVuSans-Oblique-3b5"/>
      <use transform="translate(551.501953 -15.625)scale(0.7)" xlink:href="#DejaVuSans-31"/>
      <use transform="translate(598.772461 0.78125)" xlink:href="#DejaVuSans-20"/>
      <use transform="translate(630.55957 0.78125)" xlink:href="#DejaVuSans-3d"/>
      <use transform="translate(714.348633 0.78125)" xlink:href="#DejaVuSans-20"/>
      <use transform="translate(746.135742 0.78125)" xlink:href="#DejaVuSans-31"/>
      <use transform="translate(809.758789 0.78125)" xlink:href="#DejaVuSans-2e"/>
      <use transform="translate(841.545898 0.78125)" xlink:href="#DejaVuSans-31"/>
      <use transform="translate(905.168945 0.78125)" xlink:href="#DejaVuSans-65"/>
      <use transform="translate(966.692383 0.78125)" xlink:href="#DejaVuSans-2d"/>
      <use transform="translate(1002.776367 0.78125)" xlink:href="#DejaVuSans-31"/>
      <use transform="translate(1066.399414 0.78125)" xlink:href="#DejaVuSans-34"/>
      <use transform="translate(1130.022461 0.78125)" xlink:href="#DejaVuSans-2c"/>
      <use transform="translate(1161.80957 0.78125)" xlink:href="#DejaVuSans-20"/>
      <use transform="translate(1193.59668 0.78125)" xlink:href="#DejaVuSans-Oblique-3b5"/>
      <use transform="translate(1247.649414 -15.625)scale(0.7)" xlink:href="#DejaVuSans-32"/>
      <use transform="translate(1294.919922 0.78125)" xlink:href="#DejaVuSans-20"/>
      <use transform="translate(1326.707031 0.78125)" xlink:href="#DejaVuSans-3d"/>
      <use transform="translate(1410.496094 0.78125)" xlink:href="#DejaVuSans-20"/>
      <use transform="translate(1442.283203 0.78125)" xlink:href="#DejaVuSans-32"/>
      <use transform="translate(1505.90625 0.78125)" xlink:href="#DejaVuSans-2e"/>
      <use transform="translate(1537.662109 0.78125)" xlink:href="#DejaVuSans-38"/>
      <use transform="translate(1601.285156 0.78125)" xlink:href="#DejaVuSans-65"/>
      <use transform="translate(1662.808594 0.78125)" xlink:href="#DejaVuSans-2d"/>
      <use transform="translate(1698.892578 0.78125)" xlink:href="#DejaVuSans-31"/>
      <use transform="translate(1762.515625 0.78125)" xlink:href="#DejaVuSans-36"/>
     </g>
    </g>
    <g id="line2d_30">
     <path d="M 109.360625 92.504844 
L 137.360625 92.504844 
" style="fill:none;stroke:#fe0100;stroke-dasharray:1.5,2.475;stroke-dashoffset:0;stroke-width:1.5;"/>
    </g>
    <g id="line2d_31"/>
    <g id="text_22">
     <!-- $\Delta x$ = 0.8, $\varepsilon_1$ = 1.5e-14, $\varepsilon_2$ = 1.4e-16 -->
     <g transform="translate(148.560625 97.404844)scale(0.14 -0.14)">
      <use transform="translate(0 0.78125)" xlink:href="#DejaVuSans-394"/>
      <use transform="translate(68.408203 0.78125)" xlink:href="#DejaVuSans-Oblique-78"/>
      <use transform="translate(127.587891 0.78125)" xlink:href="#DejaVuSans-20"/>
      <use transform="translate(159.375 0.78125)" xlink:href="#DejaVuSans-3d"/>
      <use transform="translate(243.164062 0.78125)" xlink:href="#DejaVuSans-20"/>
      <use transform="translate(274.951172 0.78125)" xlink:href="#DejaVuSans-30"/>
      <use transform="translate(338.574219 0.78125)" xlink:href="#DejaVuSans-2e"/>
      <use transform="translate(370.330078 0.78125)" xlink:href="#DejaVuSans-38"/>
      <use transform="translate(433.953125 0.78125)" xlink:href="#DejaVuSans-2c"/>
      <use transform="translate(465.740234 0.78125)" xlink:href="#DejaVuSans-20"/>
      <use transform="translate(497.527344 0.78125)" xlink:href="#DejaVuSans-Oblique-3b5"/>
      <use transform="translate(551.580078 -15.625)scale(0.7)" xlink:href="#DejaVuSans-31"/>
      <use transform="translate(598.850586 0.78125)" xlink:href="#DejaVuSans-20"/>
      <use transform="translate(630.637695 0.78125)" xlink:href="#DejaVuSans-3d"/>
      <use transform="translate(714.426758 0.78125)" xlink:href="#DejaVuSans-20"/>
      <use transform="translate(746.213867 0.78125)" xlink:href="#DejaVuSans-31"/>
      <use transform="translate(809.836914 0.78125)" xlink:href="#DejaVuSans-2e"/>
      <use transform="translate(841.624023 0.78125)" xlink:href="#DejaVuSans-35"/>
      <use transform="translate(905.24707 0.78125)" xlink:href="#DejaVuSans-65"/>
      <use transform="translate(966.770508 0.78125)" xlink:href="#DejaVuSans-2d"/>
      <use transform="translate(1002.854492 0.78125)" xlink:href="#DejaVuSans-31"/>
      <use transform="translate(1066.477539 0.78125)" xlink:href="#DejaVuSans-34"/>
      <use transform="translate(1130.100586 0.78125)" xlink:href="#DejaVuSans-2c"/>
      <use transform="translate(1161.887695 0.78125)" xlink:href="#DejaVuSans-20"/>
      <use transform="translate(1193.674805 0.78125)" xlink:href="#DejaVuSans-Oblique-3b5"/>
      <use transform="translate(1247.727539 -15.625)scale(0.7)" xlink:href="#DejaVuSans-32"/>
      <use transform="translate(1294.998047 0.78125)" xlink:href="#DejaVuSans-20"/>
      <use transform="translate(1326.785156 0.78125)" xlink:href="#DejaVuSans-3d"/>
      <use transform="translate(1410.574219 0.78125)" xlink:href="#DejaVuSans-20"/>
      <use transform="translate(1442.361328 0.78125)" xlink:href="#DejaVuSans-31"/>
      <use transform="translate(1505.984375 0.78125)" xlink:href="#DejaVuSans-2e"/>
      <use transform="translate(1537.771484 0.78125)" xlink:href="#DejaVuSans-34"/>
      <use transform="translate(1601.394531 0.78125)" xlink:href="#DejaVuSans-65"/>
      <use transform="translate(1662.917969 0.78125)" xlink:href="#DejaVuSans-2d"/>
      <use transform="translate(1699.001953 0.78125)" xlink:href="#DejaVuSans-31"/>
      <use transform="translate(1762.625 0.78125)" xlink:href="#DejaVuSans-36"/>
     </g>
    </g>
    <g id="line2d_32">
     <path d="M 109.360625 113.054219 
L 137.360625 113.054219 
" style="fill:none;stroke:#aa5500;stroke-linecap:square;stroke-width:1.5;"/>
    </g>
    <g id="line2d_33"/>
    <g id="text_23">
     <!-- $\Delta x$ = 0.9, $\varepsilon_1$ = 4.4e-16, $\varepsilon_2$ = 1.1e-16 -->
     <defs>
      <path d="M 10.984375 1.515625 
L 10.984375 10.5 
Q 14.703125 8.734375 18.5 7.8125 
Q 22.3125 6.890625 25.984375 6.890625 
Q 35.75 6.890625 40.890625 13.453125 
Q 46.046875 20.015625 46.78125 33.40625 
Q 43.953125 29.203125 39.59375 26.953125 
Q 35.25 24.703125 29.984375 24.703125 
Q 19.046875 24.703125 12.671875 31.3125 
Q 6.296875 37.9375 6.296875 49.421875 
Q 6.296875 60.640625 12.9375 67.421875 
Q 19.578125 74.21875 30.609375 74.21875 
Q 43.265625 74.21875 49.921875 64.515625 
Q 56.59375 54.828125 56.59375 36.375 
Q 56.59375 19.140625 48.40625 8.859375 
Q 40.234375 -1.421875 26.421875 -1.421875 
Q 22.703125 -1.421875 18.890625 -0.6875 
Q 15.09375 0.046875 10.984375 1.515625 
z
M 30.609375 32.421875 
Q 37.25 32.421875 41.125 36.953125 
Q 45.015625 41.5 45.015625 49.421875 
Q 45.015625 57.28125 41.125 61.84375 
Q 37.25 66.40625 30.609375 66.40625 
Q 23.96875 66.40625 20.09375 61.84375 
Q 16.21875 57.28125 16.21875 49.421875 
Q 16.21875 41.5 20.09375 36.953125 
Q 23.96875 32.421875 30.609375 32.421875 
z
" id="DejaVuSans-39"/>
     </defs>
     <g transform="translate(148.560625 117.954219)scale(0.14 -0.14)">
      <use transform="translate(0 0.78125)" xlink:href="#DejaVuSans-394"/>
      <use transform="translate(68.408203 0.78125)" xlink:href="#DejaVuSans-Oblique-78"/>
      <use transform="translate(127.587891 0.78125)" xlink:href="#DejaVuSans-20"/>
      <use transform="translate(159.375 0.78125)" xlink:href="#DejaVuSans-3d"/>
      <use transform="translate(243.164062 0.78125)" xlink:href="#DejaVuSans-20"/>
      <use transform="translate(274.951172 0.78125)" xlink:href="#DejaVuSans-30"/>
      <use transform="translate(338.574219 0.78125)" xlink:href="#DejaVuSans-2e"/>
      <use transform="translate(370.361328 0.78125)" xlink:href="#DejaVuSans-39"/>
      <use transform="translate(433.984375 0.78125)" xlink:href="#DejaVuSans-2c"/>
      <use transform="translate(465.771484 0.78125)" xlink:href="#DejaVuSans-20"/>
      <use transform="translate(497.558594 0.78125)" xlink:href="#DejaVuSans-Oblique-3b5"/>
      <use transform="translate(551.611328 -15.625)scale(0.7)" xlink:href="#DejaVuSans-31"/>
      <use transform="translate(598.881836 0.78125)" xlink:href="#DejaVuSans-20"/>
      <use transform="translate(630.668945 0.78125)" xlink:href="#DejaVuSans-3d"/>
      <use transform="translate(714.458008 0.78125)" xlink:href="#DejaVuSans-20"/>
      <use transform="translate(746.245117 0.78125)" xlink:href="#DejaVuSans-34"/>
      <use transform="translate(809.868164 0.78125)" xlink:href="#DejaVuSans-2e"/>
      <use transform="translate(841.655273 0.78125)" xlink:href="#DejaVuSans-34"/>
      <use transform="translate(905.27832 0.78125)" xlink:href="#DejaVuSans-65"/>
      <use transform="translate(966.801758 0.78125)" xlink:href="#DejaVuSans-2d"/>
      <use transform="translate(1002.885742 0.78125)" xlink:href="#DejaVuSans-31"/>
      <use transform="translate(1066.508789 0.78125)" xlink:href="#DejaVuSans-36"/>
      <use transform="translate(1130.131836 0.78125)" xlink:href="#DejaVuSans-2c"/>
      <use transform="translate(1161.918945 0.78125)" xlink:href="#DejaVuSans-20"/>
      <use transform="translate(1193.706055 0.78125)" xlink:href="#DejaVuSans-Oblique-3b5"/>
      <use transform="translate(1247.758789 -15.625)scale(0.7)" xlink:href="#DejaVuSans-32"/>
      <use transform="translate(1295.029297 0.78125)" xlink:href="#DejaVuSans-20"/>
      <use transform="translate(1326.816406 0.78125)" xlink:href="#DejaVuSans-3d"/>
      <use transform="translate(1410.605469 0.78125)" xlink:href="#DejaVuSans-20"/>
      <use transform="translate(1442.392578 0.78125)" xlink:href="#DejaVuSans-31"/>
      <use transform="translate(1506.015625 0.78125)" xlink:href="#DejaVuSans-2e"/>
      <use transform="translate(1537.802734 0.78125)" xlink:href="#DejaVuSans-31"/>
      <use transform="translate(1601.425781 0.78125)" xlink:href="#DejaVuSans-65"/>
      <use transform="translate(1662.949219 0.78125)" xlink:href="#DejaVuSans-2d"/>
      <use transform="translate(1699.033203 0.78125)" xlink:href="#DejaVuSans-31"/>
      <use transform="translate(1762.65625 0.78125)" xlink:href="#DejaVuSans-36"/>
     </g>
    </g>
    <g id="line2d_34">
     <path d="M 109.360625 133.603594 
L 137.360625 133.603594 
" style="fill:none;stroke:#54ab00;stroke-dasharray:5.55,2.4;stroke-dashoffset:0;stroke-width:1.5;"/>
    </g>
    <g id="line2d_35"/>
    <g id="text_24">
     <!-- $\Delta x$ = 1.0, $\varepsilon_1$ = 1.9e-14, $\varepsilon_2$ = 1.0e-16 -->
     <g transform="translate(148.560625 138.503594)scale(0.14 -0.14)">
      <use transform="translate(0 0.78125)" xlink:href="#DejaVuSans-394"/>
      <use transform="translate(68.408203 0.78125)" xlink:href="#DejaVuSans-Oblique-78"/>
      <use transform="translate(127.587891 0.78125)" xlink:href="#DejaVuSans-20"/>
      <use transform="translate(159.375 0.78125)" xlink:href="#DejaVuSans-3d"/>
      <use transform="translate(243.164062 0.78125)" xlink:href="#DejaVuSans-20"/>
      <use transform="translate(274.951172 0.78125)" xlink:href="#DejaVuSans-31"/>
      <use transform="translate(338.574219 0.78125)" xlink:href="#DejaVuSans-2e"/>
      <use transform="translate(370.361328 0.78125)" xlink:href="#DejaVuSans-30"/>
      <use transform="translate(433.984375 0.78125)" xlink:href="#DejaVuSans-2c"/>
      <use transform="translate(465.771484 0.78125)" xlink:href="#DejaVuSans-20"/>
      <use transform="translate(497.558594 0.78125)" xlink:href="#DejaVuSans-Oblique-3b5"/>
      <use transform="translate(551.611328 -15.625)scale(0.7)" xlink:href="#DejaVuSans-31"/>
      <use transform="translate(598.881836 0.78125)" xlink:href="#DejaVuSans-20"/>
      <use transform="translate(630.668945 0.78125)" xlink:href="#DejaVuSans-3d"/>
      <use transform="translate(714.458008 0.78125)" xlink:href="#DejaVuSans-20"/>
      <use transform="translate(746.245117 0.78125)" xlink:href="#DejaVuSans-31"/>
      <use transform="translate(809.868164 0.78125)" xlink:href="#DejaVuSans-2e"/>
      <use transform="translate(841.655273 0.78125)" xlink:href="#DejaVuSans-39"/>
      <use transform="translate(905.27832 0.78125)" xlink:href="#DejaVuSans-65"/>
      <use transform="translate(966.801758 0.78125)" xlink:href="#DejaVuSans-2d"/>
      <use transform="translate(1002.885742 0.78125)" xlink:href="#DejaVuSans-31"/>
      <use transform="translate(1066.508789 0.78125)" xlink:href="#DejaVuSans-34"/>
      <use transform="translate(1130.131836 0.78125)" xlink:href="#DejaVuSans-2c"/>
      <use transform="translate(1161.918945 0.78125)" xlink:href="#DejaVuSans-20"/>
      <use transform="translate(1193.706055 0.78125)" xlink:href="#DejaVuSans-Oblique-3b5"/>
      <use transform="translate(1247.758789 -15.625)scale(0.7)" xlink:href="#DejaVuSans-32"/>
      <use transform="translate(1295.029297 0.78125)" xlink:href="#DejaVuSans-20"/>
      <use transform="translate(1326.816406 0.78125)" xlink:href="#DejaVuSans-3d"/>
      <use transform="translate(1410.605469 0.78125)" xlink:href="#DejaVuSans-20"/>
      <use transform="translate(1442.392578 0.78125)" xlink:href="#DejaVuSans-31"/>
      <use transform="translate(1506.015625 0.78125)" xlink:href="#DejaVuSans-2e"/>
      <use transform="translate(1537.802734 0.78125)" xlink:href="#DejaVuSans-30"/>
      <use transform="translate(1601.425781 0.78125)" xlink:href="#DejaVuSans-65"/>
      <use transform="translate(1662.949219 0.78125)" xlink:href="#DejaVuSans-2d"/>
      <use transform="translate(1699.033203 0.78125)" xlink:href="#DejaVuSans-31"/>
      <use transform="translate(1762.65625 0.78125)" xlink:href="#DejaVuSans-36"/>
     </g>
    </g>
    <g id="line2d_36">
     <path d="M 109.360625 154.152969 
L 137.360625 154.152969 
" style="fill:none;stroke:#00ff00;stroke-dasharray:9.6,2.4,1.5,2.4;stroke-dashoffset:0;stroke-width:1.5;"/>
    </g>
    <g id="line2d_37"/>
    <g id="text_25">
     <!-- $\Delta x$ = 1.1, $\varepsilon_1$ = 8.2e-15, $\varepsilon_2$ = 3.6e-16 -->
     <g transform="translate(148.560625 159.052969)scale(0.14 -0.14)">
      <use transform="translate(0 0.78125)" xlink:href="#DejaVuSans-394"/>
      <use transform="translate(68.408203 0.78125)" xlink:href="#DejaVuSans-Oblique-78"/>
      <use transform="translate(127.587891 0.78125)" xlink:href="#DejaVuSans-20"/>
      <use transform="translate(159.375 0.78125)" xlink:href="#DejaVuSans-3d"/>
      <use transform="translate(243.164062 0.78125)" xlink:href="#DejaVuSans-20"/>
      <use transform="translate(274.951172 0.78125)" xlink:href="#DejaVuSans-31"/>
      <use transform="translate(338.574219 0.78125)" xlink:href="#DejaVuSans-2e"/>
      <use transform="translate(370.361328 0.78125)" xlink:href="#DejaVuSans-31"/>
      <use transform="translate(433.984375 0.78125)" xlink:href="#DejaVuSans-2c"/>
      <use transform="translate(465.771484 0.78125)" xlink:href="#DejaVuSans-20"/>
      <use transform="translate(497.558594 0.78125)" xlink:href="#DejaVuSans-Oblique-3b5"/>
      <use transform="translate(551.611328 -15.625)scale(0.7)" xlink:href="#DejaVuSans-31"/>
      <use transform="translate(598.881836 0.78125)" xlink:href="#DejaVuSans-20"/>
      <use transform="translate(630.668945 0.78125)" xlink:href="#DejaVuSans-3d"/>
      <use transform="translate(714.458008 0.78125)" xlink:href="#DejaVuSans-20"/>
      <use transform="translate(746.245117 0.78125)" xlink:href="#DejaVuSans-38"/>
      <use transform="translate(809.868164 0.78125)" xlink:href="#DejaVuSans-2e"/>
      <use transform="translate(841.577148 0.78125)" xlink:href="#DejaVuSans-32"/>
      <use transform="translate(905.200195 0.78125)" xlink:href="#DejaVuSans-65"/>
      <use transform="translate(966.723633 0.78125)" xlink:href="#DejaVuSans-2d"/>
      <use transform="translate(1002.807617 0.78125)" xlink:href="#DejaVuSans-31"/>
      <use transform="translate(1066.430664 0.78125)" xlink:href="#DejaVuSans-35"/>
      <use transform="translate(1130.053711 0.78125)" xlink:href="#DejaVuSans-2c"/>
      <use transform="translate(1161.84082 0.78125)" xlink:href="#DejaVuSans-20"/>
      <use transform="translate(1193.62793 0.78125)" xlink:href="#DejaVuSans-Oblique-3b5"/>
      <use transform="translate(1247.680664 -15.625)scale(0.7)" xlink:href="#DejaVuSans-32"/>
      <use transform="translate(1294.951172 0.78125)" xlink:href="#DejaVuSans-20"/>
      <use transform="translate(1326.738281 0.78125)" xlink:href="#DejaVuSans-3d"/>
      <use transform="translate(1410.527344 0.78125)" xlink:href="#DejaVuSans-20"/>
      <use transform="translate(1442.314453 0.78125)" xlink:href="#DejaVuSans-33"/>
      <use transform="translate(1505.9375 0.78125)" xlink:href="#DejaVuSans-2e"/>
      <use transform="translate(1537.724609 0.78125)" xlink:href="#DejaVuSans-36"/>
      <use transform="translate(1601.347656 0.78125)" xlink:href="#DejaVuSans-65"/>
      <use transform="translate(1662.871094 0.78125)" xlink:href="#DejaVuSans-2d"/>
      <use transform="translate(1698.955078 0.78125)" xlink:href="#DejaVuSans-31"/>
      <use transform="translate(1762.578125 0.78125)" xlink:href="#DejaVuSans-36"/>
     </g>
    </g>
   </g>
  </g>
 </g>
 <defs>
  <clipPath id="pb75521a638">
   <rect height="266.112" width="357.12" x="59.820625" y="12.518906"/>
  </clipPath>
 </defs>
</svg>
